<svg width="26" height="26" viewBox="0 0 26 26" fill="none" xmlns="http://www.w3.org/2000/svg">
<g clip-path="url(#clip0_85_583)">
<path d="M25.9998 24.9164C25.9998 25.2037 25.8857 25.4792 25.6825 25.6824C25.4793 25.8856 25.2038 25.9997 24.9165 25.9997H1.08313C0.795808 25.9997 0.520258 25.8856 0.317094 25.6824C0.113929 25.4792 -0.000207292 25.2037 -0.000207292 24.9164C-0.000207292 24.629 0.113929 24.3535 0.317094 24.1503C0.520258 23.9472 0.795808 23.833 1.08313 23.833H24.9165C25.2038 23.833 25.4793 23.9472 25.6825 24.1503C25.8857 24.3535 25.9998 24.629 25.9998 24.9164ZM0.315043 9.26436C0.0816085 8.83138 -0.0265381 8.34191 0.00273984 7.85088C0.0320178 7.35985 0.197562 6.8867 0.480793 6.48453C0.943656 5.8054 1.56352 5.24797 2.28779 4.85953L10.4139 0.630194C11.2126 0.214877 12.0996 -0.00195313 12.9998 -0.00195312C13.9 -0.00195313 14.787 0.214877 15.5857 0.630194L23.7107 4.86278C24.435 5.25122 25.0548 5.80865 25.5177 6.48778C25.8009 6.88995 25.9665 7.3631 25.9958 7.85413C26.025 8.34516 25.9169 8.83463 25.6835 9.26761C25.4321 9.74301 25.0552 10.1403 24.5937 10.4164C24.1322 10.6924 23.6039 10.8365 23.0661 10.833H22.7498V19.4997H23.8331C24.1204 19.4997 24.396 19.6138 24.5992 19.817C24.8023 20.0202 24.9165 20.2957 24.9165 20.583C24.9165 20.8703 24.8023 21.1459 24.5992 21.3491C24.396 21.5522 24.1204 21.6664 23.8331 21.6664H2.16646C1.87914 21.6664 1.60359 21.5522 1.40043 21.3491C1.19726 21.1459 1.08313 20.8703 1.08313 20.583C1.08313 20.2957 1.19726 20.0202 1.40043 19.817C1.60359 19.6138 1.87914 19.4997 2.16646 19.4997H3.24979V10.833H2.93346C2.39521 10.8364 1.86638 10.6919 1.40465 10.4153C0.942912 10.1386 0.566006 9.74053 0.315043 9.26436ZM5.41646 19.4997H8.66646V10.833H5.41646V19.4997ZM10.8331 10.833V19.4997H15.1665V10.833H10.8331ZM20.5831 10.833H17.3331V19.4997H20.5831V10.833ZM2.23471 8.26011C2.30268 8.38543 2.40383 8.48962 2.52708 8.56128C2.65033 8.63294 2.79092 8.66929 2.93346 8.66636H23.0661C23.2087 8.66929 23.3493 8.63294 23.4725 8.56128C23.5958 8.48962 23.6969 8.38543 23.7649 8.26011C23.8144 8.1773 23.8383 8.08172 23.8337 7.98535C23.8291 7.88898 23.7961 7.79613 23.7389 7.71844C23.4764 7.32835 23.1237 7.00728 22.7108 6.78244L14.5858 2.54986C14.0961 2.29574 13.5526 2.16308 13.0009 2.16308C12.4492 2.16308 11.9056 2.29574 11.416 2.54986L3.29096 6.78244C2.87819 7.008 2.52562 7.32937 2.26288 7.71953C2.20556 7.79688 2.17231 7.88942 2.1673 7.98557C2.16229 8.08172 2.18574 8.17722 2.23471 8.26011Z" fill="#212121"/>
</g>
<defs>
<clipPath id="clip0_85_583">
<rect width="26" height="26" fill="white"/>
</clipPath>
</defs>
</svg>
