<svg width="26" height="26" viewBox="0 0 26 26" fill="none" xmlns="http://www.w3.org/2000/svg">
<g clip-path="url(#clip0_85_607)">
<path d="M25.1975 17.5505L22.3809 7.39859C21.7794 5.22696 20.4688 3.31892 18.6578 1.97812C16.8467 0.637331 14.6392 -0.0591537 12.3865 -0.000480715C10.1339 0.0581923 7.96565 0.868651 6.22682 2.30191C4.488 3.73516 3.27854 5.70885 2.79094 7.90884L0.612358 17.713C0.506942 18.188 0.509513 18.6806 0.619882 19.1544C0.730251 19.6283 0.945602 20.0713 1.25005 20.4508C1.55449 20.8303 1.94026 21.1367 2.37889 21.3472C2.81752 21.5577 3.29782 21.6671 3.78436 21.6672H7.69194C7.94058 22.8917 8.6049 23.9925 9.57233 24.7833C10.5398 25.574 11.7508 26.0059 13.0003 26.0059C14.2497 26.0059 15.4608 25.574 16.4282 24.7833C17.3957 23.9925 18.06 22.8917 18.3086 21.6672H22.0678C22.5684 21.667 23.0622 21.5511 23.5107 21.3286C23.9591 21.1061 24.3501 20.783 24.6532 20.3846C24.9562 19.9861 25.1631 19.523 25.2577 19.0314C25.3523 18.5398 25.331 18.033 25.1975 17.5505ZM13.0003 23.8338C12.3305 23.8311 11.6779 23.6214 11.1319 23.2336C10.5858 22.8457 10.1729 22.2987 9.94961 21.6672H16.0509C15.8277 22.2987 15.4148 22.8457 14.8687 23.2336C14.3226 23.6214 13.6701 23.8311 13.0003 23.8338ZM22.929 19.0726C22.828 19.2066 22.6969 19.3151 22.5465 19.3894C22.396 19.4637 22.2302 19.5017 22.0624 19.5005H3.78436C3.62214 19.5005 3.462 19.464 3.31576 19.3938C3.16952 19.3236 3.0409 19.2215 2.93942 19.0949C2.83793 18.9684 2.76615 18.8207 2.72939 18.6627C2.69263 18.5047 2.69182 18.3404 2.72702 18.1821L4.90561 8.37793C5.28949 6.65132 6.23952 5.10258 7.60469 3.97791C8.96985 2.85325 10.6718 2.2172 12.4399 2.17088C14.2081 2.12456 15.941 2.67062 17.3632 3.72227C18.7854 4.77392 19.8152 6.27079 20.2889 7.97493L23.1056 18.1268C23.1516 18.2874 23.1596 18.4564 23.1289 18.6206C23.0983 18.7847 23.0298 18.9395 22.929 19.0726Z" fill="#212121"/>
</g>
<defs>
<clipPath id="clip0_85_607">
<rect width="26" height="26" fill="white"/>
</clipPath>
</defs>
</svg>
