<svg width="26" height="26" viewBox="0 0 26 26" fill="none" xmlns="http://www.w3.org/2000/svg">
<g clip-path="url(#clip0_85_625)">
<path d="M17.875 0C13.3185 0 9.75 2.14175 9.75 4.875V7.67758C9.21064 7.61441 8.66804 7.58294 8.125 7.58333C3.5685 7.58333 0 9.72508 0 12.4583V21.125C0 23.8583 3.5685 26 8.125 26C11.8159 26 14.859 24.5949 15.8817 22.6081C16.5295 22.7023 17.1968 22.75 17.875 22.75C22.4315 22.75 26 20.6083 26 17.875V4.875C26 2.14175 22.4315 0 17.875 0ZM23.8333 13.5417C23.8333 14.82 21.2853 16.25 17.875 16.25C17.3203 16.25 16.7765 16.2121 16.25 16.1384V13.9891C16.7808 14.0508 17.3247 14.0833 17.875 14.0833C20.2518 14.0833 22.36 13.5005 23.8333 12.5548V13.5417ZM2.16667 15.8048C3.64 16.7505 5.74817 17.3333 8.125 17.3333C10.5018 17.3333 12.61 16.7505 14.0833 15.8048V16.7917C14.0833 18.07 11.5353 19.5 8.125 19.5C4.71467 19.5 2.16667 18.07 2.16667 16.7917V15.8048ZM23.8333 9.20833C23.8333 10.4867 21.2853 11.9167 17.875 11.9167C17.2954 11.9167 16.7267 11.8755 16.1785 11.7953C15.9694 10.8344 15.3118 9.971 14.3303 9.27875C15.3963 9.58208 16.5967 9.75 17.875 9.75C20.2518 9.75 22.36 9.16717 23.8333 8.22142V9.20833ZM17.875 2.16667C21.2853 2.16667 23.8333 3.59667 23.8333 4.875C23.8333 6.15333 21.2853 7.58333 17.875 7.58333C14.4647 7.58333 11.9167 6.15333 11.9167 4.875C11.9167 3.59667 14.4647 2.16667 17.875 2.16667ZM8.125 9.75C11.5353 9.75 14.0833 11.18 14.0833 12.4583C14.0833 13.7367 11.5353 15.1667 8.125 15.1667C4.71467 15.1667 2.16667 13.7367 2.16667 12.4583C2.16667 11.18 4.71467 9.75 8.125 9.75ZM8.125 23.8333C4.71467 23.8333 2.16667 22.4033 2.16667 21.125V20.1381C3.64 21.0838 5.74817 21.6667 8.125 21.6667C10.5018 21.6667 12.61 21.0838 14.0833 20.1381V21.125C14.0833 22.4033 11.5353 23.8333 8.125 23.8333ZM17.875 20.5833C17.3203 20.5833 16.7765 20.5454 16.25 20.4718V18.3224C16.7808 18.3842 17.3247 18.4167 17.875 18.4167C20.2518 18.4167 22.36 17.8338 23.8333 16.8881V17.875C23.8333 19.1533 21.2853 20.5833 17.875 20.5833Z" fill="#212121"/>
</g>
<defs>
<clipPath id="clip0_85_625">
<rect width="26" height="26" fill="white"/>
</clipPath>
</defs>
</svg>
