<svg width="26" height="26" viewBox="0 0 26 26" fill="none" xmlns="http://www.w3.org/2000/svg">
<path d="M19.5007 26H6.50065C5.06459 25.9983 3.68784 25.427 2.67239 24.4116C1.65694 23.3961 1.0857 22.0194 1.08398 20.5833V5.41667C1.0857 3.98061 1.65694 2.60385 2.67239 1.5884C3.68784 0.572955 5.06459 0.00172018 6.50065 0L19.5007 0C20.9367 0.00172018 22.3135 0.572955 23.3289 1.5884C24.3444 2.60385 24.9156 3.98061 24.9173 5.41667V20.5833C24.9156 22.0194 24.3444 23.3961 23.3289 24.4116C22.3135 25.427 20.9367 25.9983 19.5007 26ZM6.50065 2.16667C5.6387 2.16667 4.81205 2.50908 4.20255 3.11857C3.59306 3.72806 3.25065 4.55471 3.25065 5.41667V20.5833C3.25065 21.4453 3.59306 22.2719 4.20255 22.8814C4.81205 23.4909 5.6387 23.8333 6.50065 23.8333H19.5007C20.3626 23.8333 21.1893 23.4909 21.7987 22.8814C22.4082 22.2719 22.7507 21.4453 22.7507 20.5833V5.41667C22.7507 4.55471 22.4082 3.72806 21.7987 3.11857C21.1893 2.50908 20.3626 2.16667 19.5007 2.16667H6.50065ZM17.334 10.8333H8.66732C7.80536 10.8333 6.97871 10.4909 6.36922 9.88143C5.75973 9.27194 5.41732 8.44529 5.41732 7.58333C5.41732 6.72138 5.75973 5.89473 6.36922 5.28524C6.97871 4.67574 7.80536 4.33333 8.66732 4.33333H17.334C18.1959 4.33333 19.0226 4.67574 19.6321 5.28524C20.2416 5.89473 20.584 6.72138 20.584 7.58333C20.584 8.44529 20.2416 9.27194 19.6321 9.88143C19.0226 10.4909 18.1959 10.8333 17.334 10.8333ZM8.66732 6.5C8.38 6.5 8.10445 6.61414 7.90129 6.8173C7.69812 7.02047 7.58398 7.29602 7.58398 7.58333C7.58398 7.87065 7.69812 8.1462 7.90129 8.34937C8.10445 8.55253 8.38 8.66667 8.66732 8.66667H17.334C17.6213 8.66667 17.8969 8.55253 18.1 8.34937C18.3032 8.1462 18.4173 7.87065 18.4173 7.58333C18.4173 7.29602 18.3032 7.02047 18.1 6.8173C17.8969 6.61414 17.6213 6.5 17.334 6.5H8.66732ZM6.50065 14.0833C6.28639 14.0833 6.07694 14.1469 5.89878 14.2659C5.72063 14.3849 5.58178 14.5541 5.49978 14.7521C5.41779 14.95 5.39633 15.1679 5.43813 15.378C5.47993 15.5882 5.58311 15.7812 5.73462 15.9327C5.88613 16.0842 6.07916 16.1874 6.2893 16.2292C6.49945 16.271 6.71727 16.2495 6.91523 16.1675C7.11318 16.0855 7.28237 15.9467 7.40141 15.7685C7.52045 15.5904 7.58398 15.3809 7.58398 15.1667C7.58398 14.8793 7.46985 14.6038 7.26668 14.4006C7.06352 14.1975 6.78797 14.0833 6.50065 14.0833ZM10.834 14.0833C10.6197 14.0833 10.4103 14.1469 10.2321 14.2659C10.054 14.3849 9.91511 14.5541 9.83312 14.7521C9.75112 14.95 9.72967 15.1679 9.77147 15.378C9.81327 15.5882 9.91645 15.7812 10.068 15.9327C10.2195 16.0842 10.4125 16.1874 10.6226 16.2292C10.8328 16.271 11.0506 16.2495 11.2486 16.1675C11.4465 16.0855 11.6157 15.9467 11.7347 15.7685C11.8538 15.5904 11.9173 15.3809 11.9173 15.1667C11.9173 14.8793 11.8032 14.6038 11.6 14.4006C11.3969 14.1975 11.1213 14.0833 10.834 14.0833ZM15.1673 14.0833C14.9531 14.0833 14.7436 14.1469 14.5654 14.2659C14.3873 14.3849 14.2484 14.5541 14.1664 14.7521C14.0845 14.95 14.063 15.1679 14.1048 15.378C14.1466 15.5882 14.2498 15.7812 14.4013 15.9327C14.5528 16.0842 14.7458 16.1874 14.956 16.2292C15.1661 16.271 15.3839 16.2495 15.5819 16.1675C15.7798 16.0855 15.949 15.9467 16.0681 15.7685C16.1871 15.5904 16.2507 15.3809 16.2507 15.1667C16.2507 14.8793 16.1365 14.6038 15.9334 14.4006C15.7302 14.1975 15.4546 14.0833 15.1673 14.0833ZM6.50065 18.4167C6.28639 18.4167 6.07694 18.4802 5.89878 18.5992C5.72063 18.7183 5.58178 18.8875 5.49978 19.0854C5.41779 19.2834 5.39633 19.5012 5.43813 19.7113C5.47993 19.9215 5.58311 20.1145 5.73462 20.266C5.88613 20.4175 6.07916 20.5207 6.2893 20.5625C6.49945 20.6043 6.71727 20.5829 6.91523 20.5009C7.11318 20.4189 7.28237 20.28 7.40141 20.1019C7.52045 19.9237 7.58398 19.7143 7.58398 19.5C7.58398 19.2127 7.46985 18.9371 7.26668 18.734C7.06352 18.5308 6.78797 18.4167 6.50065 18.4167ZM10.834 18.4167C10.6197 18.4167 10.4103 18.4802 10.2321 18.5992C10.054 18.7183 9.91511 18.8875 9.83312 19.0854C9.75112 19.2834 9.72967 19.5012 9.77147 19.7113C9.81327 19.9215 9.91645 20.1145 10.068 20.266C10.2195 20.4175 10.4125 20.5207 10.6226 20.5625C10.8328 20.6043 11.0506 20.5829 11.2486 20.5009C11.4465 20.4189 11.6157 20.28 11.7347 20.1019C11.8538 19.9237 11.9173 19.7143 11.9173 19.5C11.9173 19.2127 11.8032 18.9371 11.6 18.734C11.3969 18.5308 11.1213 18.4167 10.834 18.4167ZM19.5007 14.0833C19.2864 14.0833 19.0769 14.1469 18.8988 14.2659C18.7206 14.3849 18.5818 14.5541 18.4998 14.7521C18.4178 14.95 18.3963 15.1679 18.4381 15.378C18.4799 15.5882 18.5831 15.7812 18.7346 15.9327C18.8861 16.0842 19.0792 16.1874 19.2893 16.2292C19.4994 16.271 19.7173 16.2495 19.9152 16.1675C20.1132 16.0855 20.2824 15.9467 20.4014 15.7685C20.5205 15.5904 20.584 15.3809 20.584 15.1667C20.584 14.8793 20.4698 14.6038 20.2667 14.4006C20.0635 14.1975 19.788 14.0833 19.5007 14.0833ZM20.584 19.5C20.584 19.2127 20.4698 18.9371 20.2667 18.734C20.0635 18.5308 19.788 18.4167 19.5007 18.4167H15.1673C14.88 18.4167 14.6045 18.5308 14.4013 18.734C14.1981 18.9371 14.084 19.2127 14.084 19.5C14.084 19.7873 14.1981 20.0629 14.4013 20.266C14.6045 20.4692 14.88 20.5833 15.1673 20.5833H19.5007C19.788 20.5833 20.0635 20.4692 20.2667 20.266C20.4698 20.0629 20.584 19.7873 20.584 19.5Z" fill="#00165A"/>
</svg>
