<svg width="26" height="26" viewBox="0 0 26 26" fill="none" xmlns="http://www.w3.org/2000/svg">
<g clip-path="url(#clip0_85_613)">
<path d="M8.66667 13H6.5C5.30508 13 4.33333 13.9718 4.33333 15.1667V17.3333C4.33333 18.5283 5.30508 19.5 6.5 19.5H8.66667C9.86158 19.5 10.8333 18.5283 10.8333 17.3333V15.1667C10.8333 13.9718 9.86158 13 8.66667 13ZM6.5 17.3333V15.1667H8.66667V17.3333H6.5ZM20.5833 2.16667H19.5V1.08333C19.5 0.796016 19.3859 0.520465 19.1827 0.317301C18.9795 0.114137 18.704 0 18.4167 0C18.1293 0 17.8538 0.114137 17.6506 0.317301C17.4475 0.520465 17.3333 0.796016 17.3333 1.08333V2.16667H8.66667V1.08333C8.66667 0.796016 8.55253 0.520465 8.34937 0.317301C8.1462 0.114137 7.87065 0 7.58333 0C7.29602 0 7.02047 0.114137 6.8173 0.317301C6.61414 0.520465 6.5 0.796016 6.5 1.08333V2.16667H5.41667C2.42992 2.16667 0 4.59658 0 7.58333V20.5833C0 23.5701 2.42992 26 5.41667 26H20.5833C23.5701 26 26 23.5701 26 20.5833V7.58333C26 4.59658 23.5701 2.16667 20.5833 2.16667ZM5.41667 4.33333H20.5833C22.3752 4.33333 23.8333 5.7915 23.8333 7.58333V8.66667H2.16667V7.58333C2.16667 5.7915 3.62483 4.33333 5.41667 4.33333ZM20.5833 23.8333H5.41667C3.62483 23.8333 2.16667 22.3752 2.16667 20.5833V10.8333H23.8333V20.5833C23.8333 22.3752 22.3752 23.8333 20.5833 23.8333Z" fill="#212121"/>
</g>
<defs>
<clipPath id="clip0_85_613">
<rect width="26" height="26" fill="white"/>
</clipPath>
</defs>
</svg>
