<svg width="26" height="26" viewBox="0 0 26 26" fill="none" xmlns="http://www.w3.org/2000/svg">
<g clip-path="url(#clip0_85_619)">
<path d="M26 7.58268V8.66602C26 8.95333 25.8859 9.22888 25.6827 9.43205C25.4795 9.63521 25.204 9.74935 24.9167 9.74935C24.6293 9.74935 24.3538 9.63521 24.1506 9.43205C23.9475 9.22888 23.8333 8.95333 23.8333 8.66602V7.58268C23.8333 5.79085 22.3752 4.33268 20.5833 4.33268H5.41667C3.62483 4.33268 2.16667 5.79085 2.16667 7.58268V18.416C2.16667 20.2078 3.62483 21.666 5.41667 21.666H8.66667C8.95399 21.666 9.22954 21.7802 9.4327 21.9833C9.63586 22.1865 9.75 22.462 9.75 22.7493C9.75 23.0367 9.63586 23.3122 9.4327 23.5154C9.22954 23.7185 8.95399 23.8327 8.66667 23.8327H5.41667C2.42992 23.8327 0 21.4028 0 18.416V7.58268C0 4.59593 2.42992 2.16602 5.41667 2.16602H20.5833C23.5701 2.16602 26 4.59593 26 7.58268ZM16.25 9.74935H20.5833C20.8707 9.74935 21.1462 9.63521 21.3494 9.43205C21.5525 9.22888 21.6667 8.95333 21.6667 8.66602C21.6667 8.3787 21.5525 8.10315 21.3494 7.89998C21.1462 7.69682 20.8707 7.58268 20.5833 7.58268H16.25C15.9627 7.58268 15.6871 7.69682 15.484 7.89998C15.2808 8.10315 15.1667 8.3787 15.1667 8.66602C15.1667 8.95333 15.2808 9.22888 15.484 9.43205C15.6871 9.63521 15.9627 9.74935 16.25 9.74935ZM25.0478 12.8683C25.6609 13.4814 26 14.2983 26 15.166C26 16.0338 25.6609 16.8506 25.0478 17.4648L17.7818 24.7308C17.3804 25.1344 16.903 25.4544 16.3771 25.6723C15.8513 25.8903 15.2874 26.0018 14.7182 26.0004H13C12.7127 26.0004 12.4371 25.8863 12.234 25.6831C12.0308 25.48 11.9167 25.2044 11.9167 24.9171V23.1989C11.9167 22.0419 12.3673 20.9532 13.1863 20.1353L20.4522 12.8693C21.062 12.2606 21.8884 11.9187 22.75 11.9187C23.6116 11.9187 24.438 12.2606 25.0478 12.8693V12.8683ZM23.8333 15.166C23.8333 14.9518 23.7697 14.7424 23.6507 14.5643C23.5316 14.3862 23.3625 14.2473 23.1645 14.1654C22.9666 14.0834 22.7488 14.0619 22.5387 14.1037C22.3286 14.1455 22.1356 14.2486 21.9841 14.4001L14.7182 21.666C14.3135 22.0734 14.0855 22.6237 14.0833 23.1978V23.8327H14.7182C15.2967 23.8327 15.8405 23.6073 16.25 23.1978L23.5159 15.9319C23.6169 15.8316 23.6969 15.7123 23.7514 15.5808C23.8059 15.4493 23.8337 15.3083 23.8333 15.166ZM9.75 16.2493H7.293C6.90733 16.2493 6.54767 16.0413 6.35375 15.7077C6.28294 15.5841 6.18838 15.4759 6.07552 15.389C5.96266 15.3022 5.83373 15.2386 5.69617 15.2018C5.55861 15.1651 5.41513 15.1559 5.27401 15.1749C5.13288 15.1938 4.99691 15.2405 4.87392 15.3123C4.75069 15.3834 4.6427 15.4781 4.55615 15.591C4.46961 15.704 4.4062 15.8328 4.36957 15.9703C4.33293 16.1078 4.32379 16.2512 4.34267 16.3922C4.36155 16.5332 4.40808 16.6691 4.47958 16.7921C4.76563 17.2854 5.1761 17.6949 5.66998 17.9799C6.16387 18.2649 6.72388 18.4152 7.29408 18.416H7.58442C7.58442 18.7033 7.69855 18.9789 7.90172 19.182C8.10488 19.3852 8.38043 19.4993 8.66775 19.4993C8.95507 19.4993 9.23062 19.3852 9.43378 19.182C9.63695 18.9789 9.75108 18.7033 9.75108 18.416C11.5429 18.416 13.0011 16.9578 13.0011 15.166C13.0011 13.6927 11.9459 12.4468 10.4932 12.2053L7.19875 11.656C7.00358 11.6241 6.82617 11.5237 6.69832 11.3728C6.57047 11.2219 6.50055 11.0304 6.50108 10.8327C6.50108 10.2358 6.98642 9.74935 7.58442 9.74935H10.0414C10.4271 9.74935 10.7867 9.95735 10.9807 10.291C11.0519 10.4141 11.1466 10.5219 11.2595 10.6083C11.3724 10.6948 11.5012 10.7582 11.6385 10.7948C11.7759 10.8315 11.9191 10.8407 12.0601 10.8221C12.201 10.8034 12.3369 10.7571 12.46 10.6859C12.583 10.6147 12.6908 10.5199 12.7773 10.4071C12.8637 10.2942 12.9271 10.1654 12.9638 10.028C13.0004 9.89066 13.0097 9.74742 12.991 9.60648C12.9723 9.46554 12.926 9.32966 12.8548 9.2066C12.5688 8.71321 12.1584 8.30349 11.6645 8.01834C11.1707 7.73319 10.6106 7.5826 10.0403 7.5816H9.75C9.75 7.29428 9.63586 7.01873 9.4327 6.81557C9.22954 6.6124 8.95399 6.49827 8.66667 6.49827C8.37935 6.49827 8.1038 6.6124 7.90063 6.81557C7.69747 7.01873 7.58333 7.29428 7.58333 7.5816C5.7915 7.5816 4.33333 9.03977 4.33333 10.8316C4.33333 12.3049 5.3885 13.5508 6.84125 13.7923L10.1357 14.3416C10.3308 14.3735 10.5082 14.4739 10.6361 14.6248C10.7639 14.7757 10.8339 14.9672 10.8333 15.1649C10.8333 15.7618 10.348 16.2483 9.75 16.2483V16.2493ZM15.1667 12.9993C15.1667 13.2867 15.2808 13.5622 15.484 13.7654C15.6871 13.9685 15.9627 14.0827 16.25 14.0827C16.5373 14.0827 16.8129 13.9685 17.016 13.7654C17.2192 13.5622 17.3333 13.2867 17.3333 12.9993C17.3333 12.712 17.2192 12.4365 17.016 12.2333C16.8129 12.0302 16.5373 11.916 16.25 11.916C15.9627 11.916 15.6871 12.0302 15.484 12.2333C15.2808 12.4365 15.1667 12.712 15.1667 12.9993Z" fill="#212121"/>
</g>
<defs>
<clipPath id="clip0_85_619">
<rect width="26" height="26" fill="white"/>
</clipPath>
</defs>
</svg>
