<svg width="12" height="8" viewBox="0 0 12 8" fill="none" xmlns="http://www.w3.org/2000/svg">
<path d="M5.79559 7.2443C5.69705 7.24477 5.59941 7.22555 5.5084 7.18777C5.41738 7.14999 5.33483 7.09441 5.26559 7.0243L0.26559 2.0243C0.165865 1.8784 0.120863 1.70198 0.13852 1.52614C0.156177 1.3503 0.23536 1.18634 0.362103 1.06319C0.488846 0.940032 0.655007 0.865588 0.83128 0.852985C1.00755 0.840382 1.18262 0.89043 1.32559 0.994301L5.79559 5.4343L10.2656 0.994301C10.4065 0.90291 10.5741 0.861489 10.7414 0.876677C10.9087 0.891864 11.0661 0.962781 11.1883 1.07806C11.3105 1.19334 11.3904 1.34631 11.4153 1.51244C11.4402 1.67858 11.4086 1.84826 11.3256 1.9943L6.32559 6.9943C6.25892 7.06986 6.17753 7.13101 6.08639 7.174C5.99525 7.21699 5.8963 7.24091 5.79559 7.2443Z" fill="white"/>
</svg>
