<svg width="26" height="26" viewBox="0 0 26 26" fill="none" xmlns="http://www.w3.org/2000/svg">
<path d="M22.7494 13.4587V11.916C22.7494 9.33016 21.7222 6.8502 19.8937 5.02172C18.0652 3.19324 15.5853 2.16602 12.9994 2.16602C10.4136 2.16602 7.93363 3.19324 6.10515 5.02172C4.27667 6.8502 3.24944 9.33016 3.24944 11.916V13.4587C2.11319 13.959 1.18331 14.8345 0.615445 15.9385C0.0475841 17.0425 -0.123779 18.3081 0.130042 19.5234C0.383863 20.7387 1.04746 21.83 2.00975 22.6144C2.97203 23.3989 4.17459 23.829 5.4161 23.8327C5.99074 23.8327 6.54184 23.6044 6.94817 23.1981C7.3545 22.7918 7.58277 22.2407 7.58277 21.666V15.166C7.58277 14.5914 7.3545 14.0403 6.94817 13.634C6.54184 13.2276 5.99074 12.9993 5.4161 12.9993V11.916C5.4161 9.90479 6.21506 7.97594 7.63721 6.55379C9.05936 5.13164 10.9882 4.33268 12.9994 4.33268C15.0107 4.33268 16.9395 5.13164 18.3617 6.55379C19.7838 7.97594 20.5828 9.90479 20.5828 11.916V12.9993C20.0081 12.9993 19.457 13.2276 19.0507 13.634C18.6444 14.0403 18.4161 14.5914 18.4161 15.166V21.666H15.1661C14.8788 21.666 14.6032 21.7802 14.4001 21.9833C14.1969 22.1865 14.0828 22.462 14.0828 22.7493C14.0828 23.0367 14.1969 23.3122 14.4001 23.5154C14.6032 23.7185 14.8788 23.8327 15.1661 23.8327H20.5828C21.8243 23.829 23.0268 23.3989 23.9891 22.6144C24.9514 21.83 25.615 20.7387 25.8688 19.5234C26.1227 18.3081 25.9513 17.0425 25.3834 15.9385C24.8156 14.8345 23.8857 13.959 22.7494 13.4587ZM5.4161 21.666C4.55415 21.666 3.7275 21.3236 3.11801 20.7141C2.50851 20.1046 2.1661 19.278 2.1661 18.416C2.1661 17.5541 2.50851 16.7274 3.11801 16.1179C3.7275 15.5084 4.55415 15.166 5.4161 15.166V21.666ZM20.5828 21.666V15.166C21.4447 15.166 22.2714 15.5084 22.8809 16.1179C23.4904 16.7274 23.8328 17.5541 23.8328 18.416C23.8328 19.278 23.4904 20.1046 22.8809 20.7141C22.2714 21.3236 21.4447 21.666 20.5828 21.666Z" fill="#00165A"/>
</svg>
