<svg width="27" height="83" viewBox="0 0 27 83" fill="none" xmlns="http://www.w3.org/2000/svg">
<path d="M0.156234 2.21686C0.126559 1.4141 0.129185 0.670811 0.158351 0L0.156234 2.21686C0.465712 10.5889 4.28831 25.43 18.1583 32C33.3583 39.2 24.4917 48.6667 18.1583 52.5C12.249 55.8335 1.14958 65.4212 0.083056 78.8585L0.0791016 83C-0.0299111 81.5826 -0.0235283 80.2013 0.083056 78.8585L0.156234 2.21686Z" fill="#00165A"/>
<path d="M9.07886 38L13.0789 42L9.07886 46" stroke="white"/>
<path d="M13.0789 38L17.0789 42L13.0789 46" stroke="white"/>
<path d="M0.156234 2.21686C0.126559 1.4141 0.129185 0.670811 0.158351 0L0.156234 2.21686C0.465712 10.5889 4.28831 25.43 18.1583 32C33.3583 39.2 24.4917 48.6667 18.1583 52.5C12.249 55.8335 1.14958 65.4212 0.083056 78.8585L0.0791016 83C-0.0299111 81.5826 -0.0235283 80.2013 0.083056 78.8585L0.156234 2.21686Z" fill="#00165A"/>
<path d="M17.0789 38L13.0789 42L17.0789 46" stroke="white"/>
<path d="M13.0789 38L9.07886 42L13.0789 46" stroke="white"/>
</svg>
