<svg width="22" height="22" viewBox="0 0 22 22" fill="none" xmlns="http://www.w3.org/2000/svg">
<g id="Frame">
<g id="Group">
<path id="13-Unlock" d="M15.8125 8.25H7.5625V5.98812C7.5625 5.12932 7.90366 4.30569 8.51092 3.69842C9.11819 3.09116 9.94182 2.75 10.8006 2.75H11.1994C12.0582 2.75 12.8818 3.09116 13.4891 3.69842C14.0963 4.30569 14.4375 5.12932 14.4375 5.98812C14.4375 6.17046 14.5099 6.34533 14.6389 6.47426C14.7678 6.60319 14.9427 6.67562 15.125 6.67562C15.3073 6.67562 15.4822 6.60319 15.6111 6.47426C15.7401 6.34533 15.8125 6.17046 15.8125 5.98812C15.8107 4.76521 15.3241 3.5929 14.4593 2.72816C13.5946 1.86343 12.4223 1.37682 11.1994 1.375H10.8006C9.57771 1.37682 8.4054 1.86343 7.54066 2.72816C6.67593 3.5929 6.18932 4.76521 6.1875 5.98812V8.25C5.64049 8.25 5.11589 8.4673 4.72909 8.85409C4.3423 9.24089 4.125 9.76549 4.125 10.3125V16.7062C4.12682 17.745 4.54027 18.7407 5.27478 19.4752C6.0093 20.2097 7.00499 20.6232 8.04375 20.625H13.9562C14.995 20.6232 15.9907 20.2097 16.7252 19.4752C17.4597 18.7407 17.8732 17.745 17.875 16.7062V10.3125C17.875 9.76549 17.6577 9.24089 17.2709 8.85409C16.8841 8.4673 16.3595 8.25 15.8125 8.25ZM16.5 16.7062C16.5 17.3809 16.232 18.0279 15.755 18.505C15.2779 18.982 14.6309 19.25 13.9562 19.25H8.04375C7.36911 19.25 6.72209 18.982 6.24505 18.505C5.768 18.0279 5.5 17.3809 5.5 16.7062V10.3125C5.5 10.1302 5.57243 9.9553 5.70136 9.82636C5.8303 9.69743 6.00516 9.625 6.1875 9.625H15.8125C15.9948 9.625 16.1697 9.69743 16.2986 9.82636C16.4276 9.9553 16.5 10.1302 16.5 10.3125V16.7062ZM11.6875 14.245V16.5C11.6875 16.6823 11.6151 16.8572 11.4861 16.9861C11.3572 17.1151 11.1823 17.1875 11 17.1875C10.8177 17.1875 10.6428 17.1151 10.5139 16.9861C10.3849 16.8572 10.3125 16.6823 10.3125 16.5V14.245C10.0504 14.0937 9.8455 13.86 9.72967 13.5804C9.61383 13.3008 9.59351 12.9907 9.67185 12.6983C9.75019 12.406 9.92282 12.1476 10.163 11.9634C10.4031 11.7791 10.6973 11.6792 11 11.6792C11.3027 11.6792 11.5969 11.7791 11.837 11.9634C12.0772 12.1476 12.2498 12.406 12.3281 12.6983C12.4065 12.9907 12.3862 13.3008 12.2703 13.5804C12.1545 13.86 11.9496 14.0937 11.6875 14.245Z" fill="#00165A"/>
</g>
</g>
</svg>
