<svg width="151" height="44" viewBox="0 0 151 44" fill="none" xmlns="http://www.w3.org/2000/svg">
<path d="M0 0H2.8936V2.93333H0V0Z" fill="#22182D"/>
<path d="M0 4.88888H2.8936V7.82222H0V4.88888Z" fill="#22182D"/>
<path d="M5.30493 4.88888H8.19853V7.82222H5.30493V4.88888Z" fill="#22182D"/>
<path d="M0 10.2667H2.8936V13.2H0V10.2667Z" fill="#22182D"/>
<path d="M5.30493 10.2667H8.19853V13.2H5.30493V10.2667Z" fill="#22182D"/>
<path d="M10.1276 10.2667H13.0212V13.2H10.1276V10.2667Z" fill="#22182D"/>
<path d="M0 15.1555H2.8936V18.0889H0V15.1555Z" fill="#22182D"/>
<path d="M5.30493 15.1555H8.19853V18.0889H5.30493V15.1555Z" fill="#22182D"/>
<path d="M10.1276 15.1555H13.0212V18.0889H10.1276V15.1555Z" fill="#22182D"/>
<path d="M0 20.5333H2.8936V23.4666H0V20.5333Z" fill="#22182D"/>
<path d="M5.30493 20.5333H8.19853V23.4666H5.30493V20.5333Z" fill="#22182D"/>
<path d="M10.1276 20.5333H13.0212V23.4666H10.1276V20.5333Z" fill="#22182D"/>
<path d="M0 25.4222H2.8936V28.3555H0V25.4222Z" fill="#22182D"/>
<path d="M5.30493 25.4222H8.19853V28.3555H5.30493V25.4222Z" fill="#22182D"/>
<path d="M10.1276 25.4222H13.0212V28.3555H10.1276V25.4222Z" fill="#22182D"/>
<path d="M0 30.8H2.8936V33.7333H0V30.8Z" fill="#22182D"/>
<path d="M5.30493 30.8H8.19853V33.7333H5.30493V30.8Z" fill="#22182D"/>
<path d="M10.1276 30.8H13.0212V33.7333H10.1276V30.8Z" fill="#22182D"/>
<path d="M0 35.6889H2.8936V38.6222H0V35.6889Z" fill="#22182D"/>
<path d="M5.30493 35.6889H8.19853V38.6222H5.30493V35.6889Z" fill="#22182D"/>
<path d="M10.1276 35.6889H13.0212V38.6222H10.1276V35.6889Z" fill="#22182D"/>
<path d="M0 41.0666H2.8936V44H0V41.0666Z" fill="#22182D"/>
<path d="M5.30493 41.0666H8.19853V44H5.30493V41.0666Z" fill="#22182D"/>
<path d="M10.1276 41.0666H13.0212V44H10.1276V41.0666Z" fill="#22182D"/>
<path d="M33.2793 0H30.3857V2.93333H33.2793V0Z" fill="#22182D"/>
<path d="M33.2793 4.88888H30.3857V7.82222H33.2793V4.88888Z" fill="#22182D"/>
<path d="M27.9744 4.88888H25.0808V7.82222H27.9744V4.88888Z" fill="#22182D"/>
<path d="M33.2793 10.2667H30.3857V13.2H33.2793V10.2667Z" fill="#22182D"/>
<path d="M27.9744 10.2667H25.0808V13.2H27.9744V10.2667Z" fill="#22182D"/>
<path d="M23.1517 10.2667H20.2581V13.2H23.1517V10.2667Z" fill="#22182D"/>
<path d="M33.2793 15.1555H30.3857V18.0889H33.2793V15.1555Z" fill="#22182D"/>
<path d="M27.9744 15.1555H25.0808V18.0889H27.9744V15.1555Z" fill="#22182D"/>
<path d="M23.1517 15.1555H20.2581V18.0889H23.1517V15.1555Z" fill="#22182D"/>
<path d="M33.2793 20.5333H30.3857V23.4666H33.2793V20.5333Z" fill="#22182D"/>
<path d="M27.9744 20.5333H25.0808V23.4666H27.9744V20.5333Z" fill="#22182D"/>
<path d="M23.1517 20.5333H20.2581V23.4666H23.1517V20.5333Z" fill="#22182D"/>
<path d="M33.2793 25.4222H30.3857V28.3555H33.2793V25.4222Z" fill="#22182D"/>
<path d="M27.9744 25.4222H25.0808V28.3555H27.9744V25.4222Z" fill="#22182D"/>
<path d="M23.1517 25.4222H20.2581V28.3555H23.1517V25.4222Z" fill="#22182D"/>
<path d="M33.2793 30.8H30.3857V33.7333H33.2793V30.8Z" fill="#22182D"/>
<path d="M27.9744 30.8H25.0808V33.7333H27.9744V30.8Z" fill="#22182D"/>
<path d="M23.1517 30.8H20.2581V33.7333H23.1517V30.8Z" fill="#22182D"/>
<path d="M33.2793 35.6889H30.3857V38.6222H33.2793V35.6889Z" fill="#22182D"/>
<path d="M27.9744 35.6889H25.0808V38.6222H27.9744V35.6889Z" fill="#22182D"/>
<path d="M23.1517 35.6889H20.2581V38.6222H23.1517V35.6889Z" fill="#22182D"/>
<path d="M33.2793 41.0666H30.3857V44H33.2793V41.0666Z" fill="#22182D"/>
<path d="M27.9744 41.0666H25.0808V44H27.9744V41.0666Z" fill="#22182D"/>
<path d="M23.1517 41.0666H20.2581V44H23.1517V41.0666Z" fill="#22182D"/>
<path d="M55.7241 10.9541V11.2919C55.3637 11.3031 55.0879 11.3482 54.8965 11.427C54.705 11.4946 54.5756 11.6297 54.508 11.8324C54.4517 12.0238 54.4235 12.3278 54.4235 12.7444V21.1218C54.4235 21.5271 54.4573 21.8312 54.5249 22.0338C54.5924 22.2365 54.7163 22.3716 54.8965 22.4392C55.0879 22.5068 55.3637 22.5518 55.7241 22.5743V22.9121C55.4313 22.8896 55.0597 22.8783 54.6093 22.8783C54.1589 22.8671 53.7029 22.8614 53.2413 22.8614C52.7346 22.8614 52.256 22.8671 51.8056 22.8783C51.3665 22.8783 51.0118 22.8896 50.7416 22.9121V22.5743C51.1244 22.5518 51.4115 22.5068 51.6029 22.4392C51.8056 22.3716 51.9407 22.2365 52.0083 22.0338C52.0759 21.8312 52.1096 21.5271 52.1096 21.1218V11.9337L52.2279 11.9506L48.0392 22.9628H47.7689L43.31 12.035V20.4124C43.31 20.9529 43.3438 21.3751 43.4113 21.6791C43.4789 21.9719 43.6253 22.1858 43.8505 22.321C44.0869 22.4448 44.4416 22.5293 44.9145 22.5743V22.9121C44.7006 22.8896 44.4247 22.8783 44.0869 22.8783C43.7491 22.8671 43.4282 22.8614 43.1242 22.8614C42.854 22.8614 42.5781 22.8671 42.2966 22.8783C42.0264 22.8783 41.8012 22.8896 41.621 22.9121V22.5743C41.9926 22.5293 42.2685 22.4448 42.4486 22.321C42.64 22.1971 42.7639 21.9944 42.8202 21.7129C42.8878 21.4314 42.9215 21.043 42.9215 20.5475V12.7444C42.9215 12.3278 42.8878 12.0238 42.8202 11.8324C42.7639 11.6297 42.64 11.4946 42.4486 11.427C42.2685 11.3482 41.9926 11.3031 41.621 11.2919V10.9541C41.8012 10.9653 42.0264 10.9766 42.2966 10.9879C42.5781 10.9991 42.854 11.0047 43.1242 11.0047C43.5408 11.0047 43.9462 10.9991 44.3403 10.9879C44.7344 10.9766 45.0834 10.9653 45.3875 10.9541L49.0188 20.0239L48.6472 20.328L52.1772 11.0047C52.3461 11.0047 52.5206 11.0047 52.7008 11.0047C52.8922 11.0047 53.0724 11.0047 53.2413 11.0047C53.7029 11.0047 54.1589 10.9991 54.6093 10.9879C55.0597 10.9766 55.4313 10.9653 55.7241 10.9541ZM62.3141 10.9034L66.4184 21.4934C66.5873 21.8987 66.7674 22.1802 66.9589 22.3379C67.1615 22.4842 67.3473 22.5631 67.5162 22.5743V22.9121C67.2235 22.8896 66.8688 22.8783 66.4522 22.8783C66.0468 22.8671 65.6302 22.8614 65.2023 22.8614C64.7069 22.8614 64.2452 22.8671 63.8173 22.8783C63.3895 22.8783 63.0404 22.8896 62.7702 22.9121V22.5743C63.3444 22.5518 63.7104 22.4561 63.868 22.2872C64.0257 22.107 63.9919 21.7298 63.7667 21.1556L60.7941 13.1329L61.0981 12.7613L58.3957 19.7706C58.1818 20.3336 58.0523 20.7952 58.0072 21.1556C57.9622 21.5159 57.9903 21.7974 58.0917 22.0001C58.193 22.2027 58.3619 22.3491 58.5984 22.4392C58.8348 22.518 59.1276 22.5631 59.4767 22.5743V22.9121C59.1163 22.8896 58.7673 22.8783 58.4295 22.8783C58.0917 22.8671 57.7539 22.8614 57.4161 22.8614C57.1684 22.8614 56.9319 22.8671 56.7067 22.8783C56.4928 22.8783 56.3014 22.8896 56.1325 22.9121V22.5743C56.3802 22.518 56.6223 22.3716 56.8587 22.1352C57.1064 21.8987 57.3429 21.4877 57.5681 20.9022L61.4359 10.9034C61.571 10.9147 61.7174 10.9203 61.875 10.9203C62.0327 10.9203 62.179 10.9147 62.3141 10.9034ZM63.7836 18.0478V18.3856H58.7504L58.9193 18.0478H63.7836ZM72.6126 10.9541V11.2919C72.2523 11.3031 71.9764 11.3482 71.785 11.427C71.6049 11.4946 71.481 11.6297 71.4134 11.8324C71.3459 12.0238 71.3121 12.3278 71.3121 12.7444V21.1218C71.3121 21.5271 71.3459 21.8312 71.4134 22.0338C71.481 22.2365 71.6049 22.3716 71.785 22.4392C71.9764 22.5068 72.2523 22.5518 72.6126 22.5743V22.9121C72.3311 22.8896 71.9708 22.8783 71.5317 22.8783C71.0925 22.8671 70.6478 22.8614 70.1974 22.8614C69.6907 22.8614 69.2178 22.8671 68.7786 22.8783C68.3395 22.8783 67.9792 22.8896 67.6977 22.9121V22.5743C68.0692 22.5518 68.3451 22.5068 68.5253 22.4392C68.7167 22.3716 68.8405 22.2365 68.8968 22.0338C68.9644 21.8312 68.9982 21.5271 68.9982 21.1218V12.7444C68.9982 12.3278 68.9644 12.0238 68.8968 11.8324C68.8405 11.6297 68.7167 11.4946 68.5253 11.427C68.3451 11.3482 68.0692 11.3031 67.6977 11.2919V10.9541C67.9792 10.9653 68.3395 10.9766 68.7786 10.9879C69.2178 10.9991 69.6907 11.0047 70.1974 11.0047C70.6478 11.0047 71.0925 10.9991 71.5317 10.9879C71.9708 10.9766 72.3311 10.9653 72.6126 10.9541ZM84.8115 10.9541V11.2919C84.4511 11.3257 84.1753 11.4101 83.9839 11.5452C83.7924 11.6691 83.6629 11.8718 83.5954 12.1533C83.5391 12.4235 83.5109 12.812 83.5109 13.3187V22.9628C83.4096 22.9515 83.297 22.9459 83.1731 22.9459C83.0605 22.9459 82.9367 22.9515 82.8016 22.9628L75.5558 13.116V20.4124C75.5558 20.9529 75.5896 21.3751 75.6571 21.6791C75.7247 21.9719 75.8711 22.1858 76.0963 22.321C76.3327 22.4448 76.6874 22.5293 77.1603 22.5743V22.9121C76.9464 22.8896 76.6705 22.8783 76.3327 22.8783C75.9949 22.8671 75.674 22.8614 75.37 22.8614C75.0998 22.8614 74.8239 22.8671 74.5424 22.8783C74.2722 22.8783 74.047 22.8896 73.8668 22.9121V22.5743C74.2384 22.5293 74.5143 22.4448 74.6944 22.321C74.8858 22.1971 75.0097 21.9944 75.066 21.7129C75.1336 21.4314 75.1673 21.043 75.1673 20.5475V12.7444C75.1673 12.3278 75.1336 12.0238 75.066 11.8324C75.0097 11.6297 74.8858 11.4946 74.6944 11.427C74.5143 11.3482 74.2384 11.3031 73.8668 11.2919V10.9541C74.047 10.9653 74.2722 10.9766 74.5424 10.9879C74.8239 10.9991 75.0998 11.0047 75.37 11.0047C75.629 11.0047 75.8823 10.9991 76.1301 10.9879C76.3778 10.9766 76.5974 10.9653 76.7888 10.9541L83.1225 19.3821V13.4538C83.1225 12.902 83.0887 12.4798 83.0211 12.187C82.9536 11.8943 82.8072 11.6803 82.582 11.5452C82.3568 11.4101 82.0021 11.3257 81.5179 11.2919V10.9541C81.7319 10.9653 82.0077 10.9766 82.3455 10.9879C82.6946 10.9991 83.0155 11.0047 83.3083 11.0047C83.5898 11.0047 83.8656 10.9991 84.1359 10.9879C84.4174 10.9766 84.6426 10.9653 84.8115 10.9541ZM89.9598 10.7514C90.5904 10.7514 91.0746 10.819 91.4124 10.9541C91.7502 11.0892 92.0429 11.2356 92.2906 11.3932C92.4258 11.472 92.5327 11.534 92.6115 11.579C92.7016 11.6128 92.7861 11.6297 92.8649 11.6297C92.9775 11.6297 93.0563 11.5677 93.1014 11.4439C93.1577 11.32 93.2027 11.1342 93.2365 10.8865H93.6249C93.6137 11.1005 93.5968 11.3482 93.5743 11.6297C93.563 11.9112 93.5518 12.2884 93.5405 12.7613C93.5405 13.223 93.5405 13.8366 93.5405 14.6023H93.152C93.1182 14.028 92.9888 13.4763 92.7636 12.9471C92.5496 12.4179 92.24 11.9844 91.8346 11.6466C91.4405 11.2975 90.9338 11.123 90.3145 11.123C89.7628 11.123 89.3011 11.2862 88.9296 11.6128C88.5692 11.9393 88.3891 12.3785 88.3891 12.9302C88.3891 13.4031 88.5073 13.8028 88.7438 14.1294C88.9802 14.4447 89.3124 14.7543 89.7403 15.0583C90.1794 15.3511 90.6974 15.6889 91.2941 16.0717C91.8459 16.432 92.3413 16.7923 92.7804 17.1527C93.2196 17.5017 93.563 17.8902 93.8107 18.3181C94.0697 18.7459 94.1992 19.2695 94.1992 19.8888C94.1992 20.6207 94.019 21.2288 93.6587 21.7129C93.2984 22.1971 92.8142 22.5574 92.2062 22.7939C91.5982 23.0303 90.9338 23.1486 90.2132 23.1486C89.5489 23.1486 89.0196 23.081 88.6255 22.9459C88.2427 22.8108 87.9105 22.67 87.629 22.5236C87.3813 22.366 87.1899 22.2872 87.0548 22.2872C86.9422 22.2872 86.8577 22.3491 86.8014 22.473C86.7564 22.5968 86.717 22.7826 86.6832 23.0303H86.2947C86.3173 22.7714 86.3285 22.4673 86.3285 22.1183C86.3398 21.7692 86.3454 21.3188 86.3454 20.7671C86.3567 20.2041 86.3623 19.4947 86.3623 18.639H86.7508C86.7958 19.3596 86.9197 20.0352 87.1223 20.6658C87.3363 21.2851 87.6572 21.7861 88.0851 22.169C88.5242 22.5518 89.1041 22.7432 89.8247 22.7432C90.2188 22.7432 90.5735 22.6757 90.8888 22.5405C91.2153 22.3942 91.4743 22.1746 91.6657 21.8818C91.8571 21.5778 91.9528 21.195 91.9528 20.7333C91.9528 20.2717 91.8459 19.8663 91.6319 19.5172C91.418 19.1682 91.1196 18.8416 90.7368 18.5376C90.3539 18.2336 89.9035 17.924 89.3856 17.6087C88.8564 17.2709 88.3609 16.9275 87.8993 16.5784C87.4376 16.2293 87.066 15.8353 86.7845 15.3961C86.5143 14.9457 86.3792 14.4052 86.3792 13.7747C86.3792 13.0766 86.5481 12.5079 86.8859 12.0688C87.2237 11.6184 87.6628 11.2862 88.2033 11.0723C88.755 10.8584 89.3405 10.7514 89.9598 10.7514ZM105.521 10.9541C105.476 11.472 105.442 11.9787 105.42 12.4742C105.408 12.9583 105.403 13.3299 105.403 13.5889C105.403 13.8479 105.408 14.09 105.42 14.3152C105.431 14.5404 105.442 14.7374 105.454 14.9063H105.065C104.907 14.0055 104.716 13.3018 104.491 12.7951C104.266 12.2771 103.967 11.9055 103.596 11.6803C103.235 11.4551 102.757 11.3425 102.16 11.3425H101.62V20.9698C101.62 21.4314 101.659 21.7749 101.738 22.0001C101.828 22.2253 102.002 22.3773 102.261 22.4561C102.52 22.5236 102.898 22.5631 103.393 22.5743V22.9121C103.055 22.8896 102.616 22.8783 102.076 22.8783C101.535 22.8671 100.983 22.8614 100.42 22.8614C99.8348 22.8614 99.2831 22.8671 98.7651 22.8783C98.2584 22.8783 97.8475 22.8896 97.5322 22.9121V22.5743C98.0164 22.5631 98.3879 22.5236 98.6469 22.4561C98.9059 22.3773 99.0804 22.2253 99.1705 22.0001C99.2606 21.7749 99.3056 21.4314 99.3056 20.9698V11.3425H98.7482C98.1627 11.3425 97.6842 11.4551 97.3126 11.6803C96.941 11.9055 96.6426 12.2771 96.4174 12.7951C96.1922 13.3018 96.0065 14.0055 95.8601 14.9063H95.4716C95.4941 14.7374 95.5054 14.5404 95.5054 14.3152C95.5167 14.09 95.5223 13.8479 95.5223 13.5889C95.5223 13.3299 95.511 12.9583 95.4885 12.4742C95.4772 11.9787 95.4491 11.472 95.4041 10.9541C95.8995 10.9653 96.4456 10.9766 97.0424 10.9879C97.6391 10.9991 98.2359 11.0047 98.8327 11.0047C99.4295 11.0047 99.9756 11.0047 100.471 11.0047C100.955 11.0047 101.496 11.0047 102.092 11.0047C102.689 11.0047 103.286 10.9991 103.883 10.9879C104.48 10.9766 105.026 10.9653 105.521 10.9541ZM106.574 10.9541C106.856 10.9653 107.216 10.9766 107.655 10.9879C108.094 10.9991 108.533 11.0047 108.972 11.0047C109.524 11.0047 110.048 10.9991 110.543 10.9879C111.039 10.9766 111.388 10.971 111.59 10.971C112.604 10.971 113.437 11.0948 114.09 11.3425C114.754 11.579 115.25 11.9168 115.576 12.3559C115.903 12.7951 116.066 13.313 116.066 13.9098C116.066 14.2814 115.993 14.6642 115.847 15.0583C115.7 15.4412 115.447 15.7958 115.087 16.1224C114.726 16.4489 114.231 16.7192 113.6 16.9331C112.981 17.1358 112.187 17.2371 111.219 17.2371H109.597V16.8993H111.05C111.759 16.8993 112.3 16.7755 112.671 16.5277C113.054 16.2688 113.307 15.931 113.431 15.5143C113.566 15.0865 113.634 14.6136 113.634 14.0956C113.634 13.2061 113.46 12.5192 113.11 12.035C112.761 11.5396 112.159 11.2919 111.303 11.2919C110.842 11.2919 110.538 11.3876 110.391 11.579C110.256 11.7704 110.188 12.1589 110.188 12.7444V21.1218C110.188 21.5271 110.222 21.8312 110.29 22.0338C110.357 22.2365 110.481 22.3716 110.661 22.4392C110.853 22.5068 111.129 22.5518 111.489 22.5743V22.9121C111.208 22.8896 110.847 22.8783 110.408 22.8783C109.969 22.8671 109.524 22.8614 109.074 22.8614C108.567 22.8614 108.094 22.8671 107.655 22.8783C107.216 22.8783 106.856 22.8896 106.574 22.9121V22.5743C106.946 22.5518 107.222 22.5068 107.402 22.4392C107.593 22.3716 107.717 22.2365 107.773 22.0338C107.841 21.8312 107.875 21.5271 107.875 21.1218V12.7444C107.875 12.3278 107.841 12.0238 107.773 11.8324C107.717 11.6297 107.593 11.4946 107.402 11.427C107.222 11.3482 106.946 11.3031 106.574 11.2919V10.9541ZM109.597 16.95C110.127 16.9725 110.566 17.0007 110.915 17.0344C111.275 17.057 111.579 17.0795 111.827 17.102C112.086 17.1245 112.317 17.1527 112.519 17.1864C113.454 17.2765 114.141 17.4961 114.58 17.8451C115.03 18.1829 115.329 18.7009 115.475 19.399L115.863 21.1387C115.965 21.6003 116.072 21.9325 116.184 22.1352C116.308 22.3266 116.483 22.4167 116.708 22.4054C116.866 22.4054 117.001 22.366 117.113 22.2872C117.226 22.1971 117.339 22.0789 117.451 21.9325L117.688 22.1352C117.406 22.4842 117.108 22.7432 116.792 22.9121C116.477 23.0697 116.077 23.1486 115.593 23.1486C115.053 23.1486 114.597 23.0247 114.225 22.777C113.854 22.518 113.6 22.0338 113.465 21.3245L113.144 19.6355C113.054 19.1626 112.947 18.7459 112.823 18.3856C112.711 18.0253 112.553 17.7438 112.35 17.5411C112.148 17.3385 111.849 17.2371 111.455 17.2371H109.631L109.597 16.95ZM126.838 10.9541C126.793 11.4157 126.759 11.8661 126.736 12.3053C126.725 12.7331 126.72 13.0597 126.72 13.2849C126.72 13.4988 126.725 13.7071 126.736 13.9098C126.748 14.1012 126.759 14.2645 126.77 14.3996H126.382C126.292 13.6227 126.145 13.0146 125.943 12.5755C125.74 12.1251 125.464 11.8098 125.115 11.6297C124.777 11.4383 124.332 11.3425 123.781 11.3425H122.852C122.514 11.3425 122.255 11.3707 122.075 11.427C121.895 11.4833 121.771 11.6015 121.703 11.7817C121.647 11.9618 121.619 12.2377 121.619 12.6093V21.2569C121.619 21.6172 121.647 21.8931 121.703 22.0845C121.771 22.2647 121.895 22.3829 122.075 22.4392C122.255 22.4955 122.514 22.5236 122.852 22.5236H123.815C124.389 22.5236 124.867 22.4167 125.25 22.2027C125.644 21.9888 125.96 21.6397 126.196 21.1556C126.432 20.6601 126.607 19.9845 126.72 19.1288H127.108C127.074 19.4778 127.057 19.9282 127.057 20.48C127.057 20.7164 127.063 21.0599 127.074 21.5102C127.097 21.9606 127.131 22.4279 127.176 22.9121C126.601 22.8896 125.954 22.8783 125.233 22.8783C124.513 22.8671 123.871 22.8614 123.308 22.8614C123.049 22.8614 122.705 22.8614 122.278 22.8614C121.861 22.8614 121.405 22.8671 120.909 22.8783C120.425 22.8783 119.93 22.884 119.423 22.8952C118.928 22.8952 118.455 22.9008 118.004 22.9121V22.5743C118.376 22.5518 118.652 22.5068 118.832 22.4392C119.023 22.3716 119.147 22.2365 119.204 22.0338C119.271 21.8312 119.305 21.5271 119.305 21.1218V12.7444C119.305 12.3278 119.271 12.0238 119.204 11.8324C119.147 11.6297 119.023 11.4946 118.832 11.427C118.652 11.3482 118.376 11.3031 118.004 11.2919V10.9541C118.455 10.9653 118.928 10.9766 119.423 10.9879C119.93 10.9879 120.425 10.9935 120.909 11.0047C121.405 11.0047 121.861 11.0047 122.278 11.0047C122.705 11.0047 123.049 11.0047 123.308 11.0047C123.826 11.0047 124.411 11.0047 125.064 11.0047C125.729 10.9935 126.32 10.9766 126.838 10.9541ZM124.119 16.7304C124.119 16.7304 124.119 16.7867 124.119 16.8993C124.119 17.0119 124.119 17.0682 124.119 17.0682H121.112C121.112 17.0682 121.112 17.0119 121.112 16.8993C121.112 16.7867 121.112 16.7304 121.112 16.7304H124.119ZM124.608 14.501C124.563 15.1428 124.541 15.6326 124.541 15.9704C124.552 16.3082 124.558 16.6178 124.558 16.8993C124.558 17.1808 124.563 17.4905 124.575 17.8283C124.586 18.1661 124.614 18.6559 124.659 19.2977H124.271C124.214 18.9148 124.124 18.5545 124 18.2167C123.888 17.8677 123.702 17.5918 123.443 17.3891C123.195 17.1752 122.835 17.0682 122.362 17.0682V16.7304C122.711 16.7304 122.993 16.6572 123.206 16.5108C123.432 16.3645 123.612 16.1787 123.747 15.9535C123.882 15.717 123.983 15.4749 124.051 15.2272C124.13 14.9682 124.186 14.7262 124.22 14.501H124.608ZM137.394 10.9541C137.349 11.4157 137.315 11.8661 137.293 12.3053C137.281 12.7331 137.276 13.0597 137.276 13.2849C137.276 13.4988 137.281 13.7071 137.293 13.9098C137.304 14.1012 137.315 14.2645 137.326 14.3996H136.938C136.848 13.6227 136.702 13.0146 136.499 12.5755C136.296 12.1251 136.02 11.8098 135.671 11.6297C135.333 11.4383 134.889 11.3425 134.337 11.3425H133.408C133.07 11.3425 132.811 11.3707 132.631 11.427C132.451 11.4833 132.327 11.6015 132.259 11.7817C132.203 11.9618 132.175 12.2377 132.175 12.6093V21.2569C132.175 21.6172 132.203 21.8931 132.259 22.0845C132.327 22.2647 132.451 22.3829 132.631 22.4392C132.811 22.4955 133.07 22.5236 133.408 22.5236H134.371C134.945 22.5236 135.424 22.4167 135.806 22.2027C136.2 21.9888 136.516 21.6397 136.752 21.1556C136.989 20.6601 137.163 19.9845 137.276 19.1288H137.664C137.63 19.4778 137.614 19.9282 137.614 20.48C137.614 20.7164 137.619 21.0599 137.63 21.5102C137.653 21.9606 137.687 22.4279 137.732 22.9121C137.158 22.8896 136.51 22.8783 135.789 22.8783C135.069 22.8671 134.427 22.8614 133.864 22.8614C133.605 22.8614 133.262 22.8614 132.834 22.8614C132.417 22.8614 131.961 22.8671 131.466 22.8783C130.981 22.8783 130.486 22.884 129.979 22.8952C129.484 22.8952 129.011 22.9008 128.561 22.9121V22.5743C128.932 22.5518 129.208 22.5068 129.388 22.4392C129.58 22.3716 129.703 22.2365 129.76 22.0338C129.827 21.8312 129.861 21.5271 129.861 21.1218V12.7444C129.861 12.3278 129.827 12.0238 129.76 11.8324C129.703 11.6297 129.58 11.4946 129.388 11.427C129.208 11.3482 128.932 11.3031 128.561 11.2919V10.9541C129.011 10.9653 129.484 10.9766 129.979 10.9879C130.486 10.9879 130.981 10.9935 131.466 11.0047C131.961 11.0047 132.417 11.0047 132.834 11.0047C133.262 11.0047 133.605 11.0047 133.864 11.0047C134.382 11.0047 134.967 11.0047 135.621 11.0047C136.285 10.9935 136.876 10.9766 137.394 10.9541ZM134.675 16.7304C134.675 16.7304 134.675 16.7867 134.675 16.8993C134.675 17.0119 134.675 17.0682 134.675 17.0682H131.668C131.668 17.0682 131.668 17.0119 131.668 16.8993C131.668 16.7867 131.668 16.7304 131.668 16.7304H134.675ZM135.165 14.501C135.119 15.1428 135.097 15.6326 135.097 15.9704C135.108 16.3082 135.114 16.6178 135.114 16.8993C135.114 17.1808 135.119 17.4905 135.131 17.8283C135.142 18.1661 135.17 18.6559 135.215 19.2977H134.827C134.77 18.9148 134.68 18.5545 134.556 18.2167C134.444 17.8677 134.258 17.5918 133.999 17.3891C133.751 17.1752 133.391 17.0682 132.918 17.0682V16.7304C133.267 16.7304 133.549 16.6572 133.763 16.5108C133.988 16.3645 134.168 16.1787 134.303 15.9535C134.438 15.717 134.54 15.4749 134.607 15.2272C134.686 14.9682 134.742 14.7262 134.776 14.501H135.165ZM149.082 10.9541C149.037 11.472 149.003 11.9787 148.98 12.4742C148.969 12.9583 148.964 13.3299 148.964 13.5889C148.964 13.8479 148.969 14.09 148.98 14.3152C148.992 14.5404 149.003 14.7374 149.014 14.9063H148.626C148.468 14.0055 148.277 13.3018 148.052 12.7951C147.826 12.2771 147.528 11.9055 147.156 11.6803C146.796 11.4551 146.317 11.3425 145.721 11.3425H145.18V20.9698C145.18 21.4314 145.22 21.7749 145.298 22.0001C145.389 22.2253 145.563 22.3773 145.822 22.4561C146.081 22.5236 146.458 22.5631 146.954 22.5743V22.9121C146.616 22.8896 146.177 22.8783 145.636 22.8783C145.096 22.8671 144.544 22.8614 143.981 22.8614C143.396 22.8614 142.844 22.8671 142.326 22.8783C141.819 22.8783 141.408 22.8896 141.093 22.9121V22.5743C141.577 22.5631 141.949 22.5236 142.208 22.4561C142.467 22.3773 142.641 22.2253 142.731 22.0001C142.821 21.7749 142.866 21.4314 142.866 20.9698V11.3425H142.309C141.723 11.3425 141.245 11.4551 140.873 11.6803C140.502 11.9055 140.203 12.2771 139.978 12.7951C139.753 13.3018 139.567 14.0055 139.421 14.9063H139.032C139.055 14.7374 139.066 14.5404 139.066 14.3152C139.077 14.09 139.083 13.8479 139.083 13.5889C139.083 13.3299 139.072 12.9583 139.049 12.4742C139.038 11.9787 139.01 11.472 138.965 10.9541C139.46 10.9653 140.006 10.9766 140.603 10.9879C141.2 10.9991 141.797 11.0047 142.393 11.0047C142.99 11.0047 143.536 11.0047 144.032 11.0047C144.516 11.0047 145.056 11.0047 145.653 11.0047C146.25 11.0047 146.847 10.9991 147.443 10.9879C148.04 10.9766 148.586 10.9653 149.082 10.9541Z" fill="#00165A"/>
<path d="M46.2175 31.0575C46.1917 31.2827 46.1724 31.5014 46.1596 31.7138C46.1531 31.9261 46.1499 32.0869 46.1499 32.1963C46.1499 32.3121 46.1531 32.4247 46.1596 32.5341C46.166 32.6371 46.1724 32.7239 46.1789 32.7947H45.9569C45.9183 32.4151 45.8636 32.1159 45.7928 31.8971C45.722 31.6719 45.5998 31.5143 45.4261 31.4242C45.2588 31.3277 45.0046 31.2794 44.6636 31.2794H43.8625C43.6438 31.2794 43.4765 31.2987 43.3607 31.3374C43.2513 31.3695 43.1773 31.4435 43.1387 31.5593C43.1001 31.6687 43.0808 31.8424 43.0808 32.0805V36.8676C43.0808 37.0992 43.1001 37.2729 43.1387 37.3888C43.1773 37.5046 43.2513 37.5818 43.3607 37.6204C43.4765 37.6526 43.6438 37.6686 43.8625 37.6686H44.5671C44.9725 37.6686 45.2781 37.614 45.484 37.5046C45.6963 37.3952 45.8475 37.2182 45.9376 36.9737C46.0341 36.7228 46.1049 36.385 46.1499 35.9604H46.3719C46.3526 36.1341 46.3429 36.3657 46.3429 36.6553C46.3429 36.7775 46.3462 36.9544 46.3526 37.1861C46.3655 37.4113 46.3848 37.6461 46.4105 37.8906C46.0824 37.8778 45.7124 37.8713 45.3006 37.8713C44.8888 37.8649 44.5221 37.8617 44.2003 37.8617C44.0588 37.8617 43.8754 37.8617 43.6502 37.8617C43.4315 37.8617 43.1934 37.8649 42.936 37.8713C42.6786 37.8713 42.4181 37.8745 42.1543 37.881C41.8905 37.881 41.6395 37.8842 41.4015 37.8906V37.6976C41.6202 37.6847 41.7843 37.659 41.8937 37.6204C42.0095 37.5818 42.0867 37.5046 42.1253 37.3888C42.1639 37.2729 42.1832 37.0992 42.1832 36.8676V32.0805C42.1832 31.8424 42.1639 31.6687 42.1253 31.5593C42.0867 31.4435 42.0095 31.3663 41.8937 31.3277C41.7843 31.2827 41.6202 31.2569 41.4015 31.2505V31.0575C41.6395 31.0639 41.8905 31.0703 42.1543 31.0768C42.4181 31.0768 42.6786 31.08 42.936 31.0864C43.1934 31.0864 43.4315 31.0864 43.6502 31.0864C43.8754 31.0864 44.0588 31.0864 44.2003 31.0864C44.4963 31.0864 44.8309 31.0864 45.2041 31.0864C45.5837 31.08 45.9215 31.0703 46.2175 31.0575ZM44.5574 34.3582C44.5574 34.3582 44.5574 34.3904 44.5574 34.4547C44.5574 34.5191 44.5574 34.5513 44.5574 34.5513H42.7912C42.7912 34.5513 42.7912 34.5191 42.7912 34.4547C42.7912 34.3904 42.7912 34.3582 42.7912 34.3582H44.5574ZM44.8373 33.0842C44.8116 33.451 44.7987 33.7309 44.7987 33.9239C44.8052 34.1169 44.8084 34.2939 44.8084 34.4547C44.8084 34.6156 44.8116 34.7925 44.818 34.9856C44.8245 35.1786 44.8406 35.4585 44.8663 35.8252H44.6443C44.6186 35.6193 44.5864 35.4199 44.5478 35.2269C44.5156 35.0274 44.4384 34.8665 44.3162 34.7443C44.2003 34.6156 44.0009 34.5513 43.7178 34.5513V34.3582C43.9301 34.3582 44.091 34.3164 44.2003 34.2328C44.3162 34.1427 44.3998 34.0301 44.4513 33.895C44.5028 33.7598 44.5381 33.6215 44.5574 33.48C44.5767 33.332 44.5961 33.2001 44.6154 33.0842H44.8373ZM49.3964 32.7851C49.7953 32.7851 50.117 32.8719 50.3615 33.0456C50.606 33.2129 50.7958 33.4928 50.931 33.8853L50.7379 33.7791C50.6157 33.5153 50.4452 33.3223 50.2264 33.2001C50.0076 33.0714 49.7567 33.007 49.4736 33.007C49.094 33.007 48.798 33.2033 48.5857 33.5958C48.3734 33.9883 48.2672 34.5931 48.2672 35.4102C48.2672 35.925 48.3187 36.3561 48.4216 36.7035C48.5246 37.051 48.6758 37.3115 48.8752 37.4853C49.0747 37.6526 49.316 37.7362 49.5991 37.7362C49.8693 37.7362 50.117 37.6043 50.3422 37.3405C50.5674 37.0767 50.6993 36.6874 50.7379 36.1727L50.8537 36.3078C50.8087 36.8547 50.6414 37.2794 50.3519 37.5818C50.0688 37.8778 49.7245 38.0257 49.3192 38.0257C48.9524 38.0257 48.6179 37.9324 48.3154 37.7459C48.013 37.5528 47.7717 37.2633 47.5916 36.8772C47.4179 36.4847 47.331 35.9957 47.331 35.4102C47.331 34.8247 47.4211 34.3389 47.6012 33.9529C47.7878 33.5604 48.0356 33.2676 48.3444 33.0746C48.6597 32.8816 49.0103 32.7851 49.3964 32.7851ZM51.4425 32.7658L51.6066 32.8333C51.5808 32.917 51.5615 33.007 51.5486 33.1036C51.5422 33.2001 51.539 33.2966 51.539 33.3931V38.8365C51.539 39.0681 51.5873 39.2257 51.6838 39.3094C51.7803 39.393 51.9444 39.4348 52.176 39.4348V39.6375C52.073 39.6311 51.9251 39.6214 51.732 39.6086C51.539 39.6021 51.3395 39.5989 51.1336 39.5989C50.857 39.5989 50.5899 39.6021 50.3326 39.6086C50.0816 39.6214 49.8854 39.6311 49.7438 39.6375V39.4348C50.0334 39.4348 50.2586 39.3866 50.4194 39.2901C50.5867 39.2 50.6704 39.0166 50.6704 38.7399V33.5765C50.7605 33.4864 50.8473 33.3963 50.931 33.3062C51.0146 33.2162 51.0983 33.1261 51.1819 33.036C51.272 32.9459 51.3588 32.8558 51.4425 32.7658ZM56.9773 32.814V36.8483C56.9773 37.1378 57.0288 37.3534 57.1317 37.4949C57.2411 37.63 57.4341 37.6976 57.7108 37.6976V37.9003C57.5114 37.881 57.3119 37.8713 57.1124 37.8713C56.9258 37.8713 56.7457 37.881 56.572 37.9003C56.4047 37.9196 56.2502 37.955 56.1087 38.0064V36.8676C55.9478 37.2858 55.7194 37.585 55.4234 37.7652C55.1339 37.9389 54.8347 38.0257 54.5259 38.0257C54.3007 38.0257 54.1044 37.9936 53.9371 37.9292C53.7698 37.8649 53.6315 37.7748 53.5221 37.659C53.3999 37.5303 53.3162 37.363 53.2712 37.1571C53.2261 36.9512 53.2036 36.6971 53.2036 36.3947V33.9722C53.2036 33.6826 53.1522 33.4703 53.0492 33.3352C52.9463 33.1936 52.7532 33.1229 52.4701 33.1229V32.9202C52.676 32.9395 52.8755 32.9491 53.0685 32.9491C53.2551 32.9491 53.432 32.9395 53.5993 32.9202C53.7731 32.8944 53.9307 32.8591 54.0723 32.814V36.607C54.0723 36.8065 54.0851 36.9898 54.1109 37.1571C54.1366 37.3244 54.2009 37.4595 54.3039 37.5625C54.4068 37.6654 54.5741 37.7169 54.8058 37.7169C55.0567 37.7169 55.2787 37.6397 55.4717 37.4853C55.6712 37.3308 55.8256 37.1217 55.935 36.8579C56.0508 36.5941 56.1087 36.2982 56.1087 35.97V33.9722C56.1087 33.6826 56.0572 33.4703 55.9543 33.3352C55.8513 33.1936 55.6583 33.1229 55.3752 33.1229V32.9202C55.5811 32.9395 55.7805 32.9491 55.9736 32.9491C56.1602 32.9491 56.3371 32.9395 56.5044 32.9202C56.6781 32.8944 56.8358 32.8591 56.9773 32.814ZM59.3038 30.5073C59.4711 30.5073 59.6159 30.5685 59.7381 30.6907C59.8604 30.813 59.9215 30.9577 59.9215 31.125C59.9215 31.2923 59.8604 31.4371 59.7381 31.5593C59.6159 31.6816 59.4711 31.7427 59.3038 31.7427C59.1365 31.7427 58.9918 31.6816 58.8695 31.5593C58.7473 31.4371 58.6861 31.2923 58.6861 31.125C58.6861 30.9577 58.7473 30.813 58.8695 30.6907C58.9918 30.5685 59.1365 30.5073 59.3038 30.5073ZM59.8057 32.814V36.993C59.8057 37.2633 59.8604 37.4467 59.9698 37.5432C60.0856 37.6397 60.2754 37.6879 60.5392 37.6879V37.8906C60.4298 37.8842 60.2625 37.8778 60.0373 37.8713C59.8186 37.8585 59.5966 37.852 59.3714 37.852C59.1526 37.852 58.9306 37.8585 58.7054 37.8713C58.4802 37.8778 58.3129 37.8842 58.2036 37.8906V37.6879C58.4674 37.6879 58.654 37.6397 58.7633 37.5432C58.8792 37.4467 58.9371 37.2633 58.9371 36.993V33.9722C58.9371 33.6826 58.8856 33.4703 58.7826 33.3352C58.6797 33.1936 58.4867 33.1229 58.2036 33.1229V32.9202C58.4095 32.9395 58.6089 32.9491 58.8019 32.9491C58.9885 32.9491 59.1655 32.9395 59.3328 32.9202C59.5065 32.8944 59.6641 32.8591 59.8057 32.814ZM62.585 31.318V32.9298H64.0134V33.1229H62.585V36.8579C62.585 37.1603 62.6397 37.3727 62.749 37.4949C62.8584 37.6172 63.0096 37.6783 63.2027 37.6783C63.3957 37.6783 63.563 37.6011 63.7045 37.4467C63.8461 37.2858 63.9683 37.0188 64.0713 36.6456L64.2643 36.6939C64.2 37.067 64.0713 37.3823 63.8783 37.6397C63.6917 37.8971 63.4021 38.0257 63.0096 38.0257C62.7909 38.0257 62.6107 37.9968 62.4692 37.9389C62.3276 37.8874 62.2021 37.8102 62.0928 37.7072C61.9512 37.5593 61.8515 37.3823 61.7936 37.1764C61.7421 36.9705 61.7164 36.6971 61.7164 36.3561V33.1229H60.7898V32.9298H61.7164V31.4532C61.8772 31.4467 62.0316 31.4339 62.1796 31.4146C62.3276 31.3953 62.4627 31.3631 62.585 31.318ZM68.9309 32.9202V33.1132C68.8086 33.1261 68.696 33.1808 68.5931 33.2773C68.4901 33.3738 68.3936 33.5443 68.3036 33.7888L66.7207 37.9389H66.5567L64.7808 33.6633C64.6586 33.4124 64.5363 33.2612 64.4141 33.2097C64.2982 33.1518 64.2017 33.1229 64.1245 33.1229V32.9202C64.2661 32.9395 64.4141 32.9556 64.5685 32.9684C64.7229 32.9749 64.8902 32.9781 65.0703 32.9781C65.2698 32.9781 65.4789 32.9716 65.6977 32.9588C65.9229 32.9459 66.132 32.933 66.325 32.9202V33.1229C66.1642 33.1229 66.0194 33.1357 65.8907 33.1615C65.7685 33.1808 65.6913 33.2483 65.6591 33.3641C65.6269 33.4735 65.6655 33.6633 65.7749 33.9336L66.962 36.8772L66.9041 36.8965L68.0044 34.0204C68.088 33.8081 68.1202 33.6408 68.1009 33.5186C68.088 33.3899 68.0237 33.2934 67.9078 33.229C67.792 33.1647 67.6183 33.1261 67.3867 33.1132V32.9202C67.5025 32.9266 67.6022 32.933 67.6859 32.9395C67.7695 32.9395 67.8499 32.9427 67.9272 32.9491C68.0108 32.9491 68.1009 32.9491 68.1974 32.9491C68.3454 32.9491 68.4773 32.9459 68.5931 32.9395C68.7153 32.933 68.8279 32.9266 68.9309 32.9202ZM66.7207 37.9389L66.3926 38.7785C66.3282 38.9394 66.2607 39.0745 66.1899 39.1839C66.1256 39.2933 66.0548 39.3834 65.9776 39.4541C65.8746 39.5507 65.7524 39.615 65.6108 39.6472C65.4693 39.6858 65.3406 39.7051 65.2248 39.7051C65.1025 39.7051 64.9899 39.6826 64.887 39.6375C64.7905 39.5925 64.7132 39.5249 64.6553 39.4348C64.5974 39.3512 64.5685 39.2482 64.5685 39.126C64.5685 38.9716 64.6135 38.8461 64.7036 38.7496C64.7937 38.6595 64.9191 38.6145 65.08 38.6145C65.2151 38.6145 65.3309 38.6531 65.4275 38.7303C65.524 38.8075 65.5722 38.9201 65.5722 39.0681C65.5722 39.1775 65.5465 39.2676 65.495 39.3383C65.4435 39.4091 65.3824 39.4638 65.3116 39.5024C65.3245 39.5088 65.3342 39.5121 65.3406 39.5121C65.3535 39.5121 65.3631 39.5121 65.3695 39.5121C65.5433 39.5121 65.6977 39.4509 65.8328 39.3287C65.9679 39.2129 66.087 39.0231 66.1899 38.7592L66.5374 37.8617L66.7207 37.9389ZM74.7561 30.9223C75.1807 30.9223 75.5282 30.9867 75.7984 31.1154C76.0751 31.2376 76.3196 31.3824 76.5319 31.5497C76.6606 31.6462 76.7571 31.6591 76.8215 31.5883C76.8923 31.5111 76.9405 31.3341 76.9663 31.0575H77.1882C77.1754 31.2955 77.1657 31.5851 77.1593 31.9261C77.1528 32.2671 77.1496 32.7175 77.1496 33.2773H76.9276C76.8826 33.0006 76.8408 32.7818 76.8022 32.621C76.7636 32.4537 76.7153 32.3121 76.6574 32.1963C76.6059 32.0805 76.5352 31.9647 76.4451 31.8489C76.2456 31.5851 75.9947 31.3953 75.6923 31.2794C75.3899 31.1572 75.0714 31.0961 74.7368 31.0961C74.4215 31.0961 74.1352 31.1765 73.8778 31.3374C73.6269 31.4918 73.4081 31.717 73.2215 32.0129C73.0414 32.3089 72.8998 32.666 72.7969 33.0842C72.7004 33.5025 72.6521 33.9722 72.6521 34.4933C72.6521 35.0338 72.7068 35.5132 72.8162 35.9314C72.9255 36.3432 73.0768 36.6906 73.2698 36.9737C73.4692 37.2569 73.7009 37.4724 73.9647 37.6204C74.2349 37.7619 74.5245 37.8327 74.8333 37.8327C75.1228 37.8327 75.4253 37.7748 75.7405 37.659C76.0558 37.5432 76.3035 37.3566 76.4837 37.0992C76.6252 36.9126 76.7217 36.7099 76.7732 36.4912C76.8311 36.2724 76.8826 35.9668 76.9276 35.5743H77.1496C77.1496 36.1598 77.1528 36.6327 77.1593 36.993C77.1657 37.3469 77.1754 37.6461 77.1882 37.8906H76.9663C76.9405 37.614 76.8955 37.4402 76.8311 37.3695C76.7732 37.2987 76.6735 37.3083 76.5319 37.3984C76.2939 37.5657 76.0397 37.7137 75.7695 37.8424C75.5057 37.9646 75.1647 38.0257 74.7464 38.0257C74.1352 38.0257 73.5979 37.8874 73.1347 37.6107C72.6778 37.3341 72.3207 36.9351 72.0634 36.414C71.8124 35.8928 71.687 35.2655 71.687 34.532C71.687 33.8113 71.8189 33.1808 72.0827 32.6403C72.3465 32.0998 72.7068 31.6784 73.1636 31.376C73.6269 31.0735 74.1577 30.9223 74.7561 30.9223ZM80.4646 32.7851C80.8764 32.7851 81.2464 32.8751 81.5745 33.0553C81.9027 33.2355 82.1633 33.5186 82.3563 33.9046C82.5558 34.2907 82.6555 34.7925 82.6555 35.4102C82.6555 36.0279 82.5558 36.5298 82.3563 36.9158C82.1633 37.2955 81.9027 37.5753 81.5745 37.7555C81.2464 37.9357 80.8764 38.0257 80.4646 38.0257C80.0593 38.0257 79.6893 37.9357 79.3547 37.7555C79.0266 37.5753 78.7628 37.2955 78.5633 36.9158C78.3703 36.5298 78.2738 36.0279 78.2738 35.4102C78.2738 34.7925 78.3703 34.2907 78.5633 33.9046C78.7628 33.5186 79.0266 33.2355 79.3547 33.0553C79.6893 32.8751 80.0593 32.7851 80.4646 32.7851ZM80.4646 32.9781C80.0979 32.9781 79.7955 33.1679 79.5574 33.5475C79.3258 33.9271 79.21 34.548 79.21 35.4102C79.21 36.2724 79.3258 36.8933 79.5574 37.2729C79.7955 37.6461 80.0979 37.8327 80.4646 37.8327C80.8314 37.8327 81.1306 37.6461 81.3622 37.2729C81.6003 36.8933 81.7193 36.2724 81.7193 35.4102C81.7193 34.548 81.6003 33.9271 81.3622 33.5475C81.1306 33.1679 80.8314 32.9781 80.4646 32.9781ZM86.3891 32.7851C86.5629 32.7851 86.7141 32.8204 86.8428 32.8912C86.9779 32.962 87.0808 33.0553 87.1516 33.1711C87.2288 33.2805 87.2674 33.406 87.2674 33.5475C87.2674 33.7084 87.2159 33.8499 87.113 33.9722C87.0165 34.0944 86.8846 34.1555 86.7173 34.1555C86.5822 34.1555 86.4631 34.1137 86.3602 34.0301C86.2572 33.94 86.2058 33.8145 86.2058 33.6537C86.2058 33.5314 86.2379 33.4285 86.3023 33.3448C86.3731 33.2548 86.4503 33.184 86.5339 33.1325C86.4889 33.0682 86.4213 33.036 86.3312 33.036C86.1318 33.036 85.9484 33.0971 85.7811 33.2194C85.6138 33.3352 85.4723 33.4864 85.3564 33.673C85.2406 33.8596 85.1506 34.059 85.0862 34.2714C85.0219 34.4773 84.9897 34.6703 84.9897 34.8504V36.8965C84.9897 37.2118 85.0798 37.4241 85.2599 37.5335C85.4465 37.6365 85.6975 37.6879 86.0127 37.6879V37.8906C85.8648 37.8842 85.6556 37.8778 85.3854 37.8713C85.1152 37.8585 84.8288 37.852 84.5264 37.852C84.3077 37.852 84.0889 37.8585 83.8701 37.8713C83.6578 37.8778 83.497 37.8842 83.3876 37.8906V37.6879C83.6514 37.6879 83.838 37.6397 83.9473 37.5432C84.0632 37.4467 84.1211 37.2633 84.1211 36.993V33.9722C84.1211 33.6826 84.0696 33.4703 83.9667 33.3352C83.8637 33.1936 83.6707 33.1229 83.3876 33.1229V32.9202C83.5935 32.9395 83.7929 32.9491 83.986 32.9491C84.1725 32.9491 84.3495 32.9395 84.5168 32.9202C84.6905 32.8944 84.8481 32.8591 84.9897 32.814V34.0204C85.0605 33.8338 85.1602 33.6472 85.2889 33.4607C85.424 33.2676 85.5849 33.1068 85.7715 32.9781C85.958 32.8494 86.1639 32.7851 86.3891 32.7851ZM89.22 32.814V38.7399C89.22 39.0166 89.3004 39.2 89.4613 39.2901C89.6286 39.3866 89.857 39.4348 90.1465 39.4348V39.6375C90.005 39.6311 89.8087 39.6214 89.5578 39.6086C89.3069 39.6021 89.0398 39.5989 88.7567 39.5989C88.5573 39.5989 88.3578 39.6021 88.1584 39.6086C87.9653 39.6214 87.8173 39.6311 87.7144 39.6375V39.4348C87.946 39.4348 88.1101 39.393 88.2066 39.3094C88.3031 39.2257 88.3514 39.0681 88.3514 38.8365V33.9722C88.3514 33.6826 88.2999 33.4703 88.197 33.3352C88.094 33.1936 87.901 33.1229 87.6179 33.1229V32.9202C87.8238 32.9395 88.0232 32.9491 88.2163 32.9491C88.4029 32.9491 88.5798 32.9395 88.7471 32.9202C88.9208 32.8944 89.0785 32.8591 89.22 32.814ZM90.7642 32.7851C91.1052 32.7851 91.4109 32.8784 91.6811 33.0649C91.9513 33.2451 92.1637 33.5121 92.3181 33.866C92.4789 34.2199 92.5594 34.6574 92.5594 35.1786C92.5594 35.526 92.5176 35.8703 92.4339 36.2113C92.3503 36.5459 92.2184 36.8515 92.0382 37.1282C91.8645 37.3984 91.6361 37.6172 91.353 37.7845C91.0763 37.9453 90.7417 38.0257 90.3492 38.0257C90.0468 38.0257 89.783 37.955 89.5578 37.8134C89.339 37.6719 89.1911 37.5014 89.1138 37.3019L89.2104 37.1668C89.3004 37.3469 89.4291 37.4981 89.5964 37.6204C89.7701 37.7426 89.9857 37.8038 90.2431 37.8038C90.6034 37.8038 90.8833 37.6912 91.0827 37.466C91.2822 37.2408 91.4205 36.9416 91.4977 36.5684C91.5814 36.1888 91.6232 35.7705 91.6232 35.3137C91.6232 34.799 91.5814 34.3775 91.4977 34.0494C91.4141 33.7212 91.2886 33.4767 91.1213 33.3159C90.954 33.155 90.7481 33.0746 90.5036 33.0746C90.1884 33.0746 89.902 33.2065 89.6447 33.4703C89.3873 33.7277 89.2232 34.1202 89.1524 34.6478L89.0366 34.5126C89.1074 33.9657 89.3004 33.5411 89.6157 33.2387C89.9374 32.9363 90.3203 32.7851 90.7642 32.7851ZM94.2296 36.7904C94.3969 36.7904 94.5417 36.8515 94.6639 36.9737C94.7862 37.096 94.8473 37.2408 94.8473 37.4081C94.8473 37.5753 94.7862 37.7201 94.6639 37.8424C94.5417 37.9646 94.3969 38.0257 94.2296 38.0257C94.0623 38.0257 93.9175 37.9646 93.7953 37.8424C93.673 37.7201 93.6119 37.5753 93.6119 37.4081C93.6119 37.2408 93.673 37.096 93.7953 36.9737C93.9175 36.8515 94.0623 36.7904 94.2296 36.7904Z" fill="#00165A"/>
</svg>
