<svg width="26" height="26" viewBox="0 0 26 26" fill="none" xmlns="http://www.w3.org/2000/svg">
<g clip-path="url(#clip0_85_644)">
<path d="M12.4323 16.25C12.145 16.25 11.8695 16.3641 11.6663 16.5673C11.4631 16.7705 11.349 17.046 11.349 17.3333V20.5833C11.349 21.4453 11.0066 22.2719 10.3971 22.8814C9.7876 23.4909 8.96095 23.8333 8.099 23.8333H5.41667C4.55471 23.8333 3.72806 23.4909 3.11857 22.8814C2.50908 22.2719 2.16667 21.4453 2.16667 20.5833V5.41667C2.16667 4.55471 2.50908 3.72806 3.11857 3.11857C3.72806 2.50908 4.55471 2.16667 5.41667 2.16667H8.099C8.96095 2.16667 9.7876 2.50908 10.3971 3.11857C11.0066 3.72806 11.349 4.55471 11.349 5.41667V8.66667C11.349 8.95399 11.4631 9.22954 11.6663 9.4327C11.8695 9.63586 12.145 9.75 12.4323 9.75C12.7197 9.75 12.9952 9.63586 13.1984 9.4327C13.4015 9.22954 13.5157 8.95399 13.5157 8.66667V5.41667C13.5139 3.98061 12.9427 2.60385 11.9273 1.5884C10.9118 0.572955 9.53506 0.00172018 8.099 0H5.41667C3.98061 0.00172018 2.60385 0.572955 1.5884 1.5884C0.572955 2.60385 0.00172018 3.98061 0 5.41667L0 20.5833C0.00172018 22.0194 0.572955 23.3961 1.5884 24.4116C2.60385 25.427 3.98061 25.9983 5.41667 26H8.099C9.53506 25.9983 10.9118 25.427 11.9273 24.4116C12.9427 23.3961 13.5139 22.0194 13.5157 20.5833V17.3333C13.5157 17.046 13.4015 16.7705 13.1984 16.5673C12.9952 16.3641 12.7197 16.25 12.4323 16.25Z" fill="#C70000"/>
<path d="M24.7719 10.7032L19.8038 5.73503C19.7038 5.63156 19.5843 5.54903 19.4521 5.49225C19.3199 5.43547 19.1778 5.40559 19.034 5.40434C18.8901 5.40309 18.7475 5.4305 18.6143 5.48497C18.4812 5.53944 18.3602 5.61988 18.2585 5.7216C18.1568 5.82331 18.0763 5.94427 18.0219 6.07741C17.9674 6.21055 17.94 6.3532 17.9412 6.49704C17.9425 6.64089 17.9724 6.78304 18.0292 6.91521C18.0859 7.04738 18.1685 7.16692 18.2719 7.26686L22.8891 11.8851L6.49935 11.9176C6.21203 11.9176 5.93648 12.0317 5.73332 12.2349C5.53015 12.4381 5.41602 12.7136 5.41602 13.0009C5.41602 13.2883 5.53015 13.5638 5.73332 13.767C5.93648 13.9701 6.21203 14.0843 6.49935 14.0843L22.953 14.0507L18.2698 18.735C18.1663 18.835 18.0838 18.9545 18.027 19.0867C17.9702 19.2188 17.9403 19.361 17.9391 19.5048C17.9378 19.6487 17.9652 19.7913 18.0197 19.9245C18.0742 20.0576 18.1546 20.1786 18.2563 20.2803C18.3581 20.382 18.479 20.4624 18.6121 20.5169C18.7453 20.5714 18.8879 20.5988 19.0318 20.5975C19.1756 20.5963 19.3178 20.5664 19.45 20.5096C19.5821 20.4529 19.7017 20.3703 19.8016 20.2669L24.7698 15.2987C25.3793 14.6895 25.722 13.8632 25.7224 13.0014C25.7228 12.1396 25.3809 11.3129 24.7719 10.7032Z" fill="#C70000"/>
</g>
<defs>
<clipPath id="clip0_85_644">
<rect width="26" height="26" fill="white"/>
</clipPath>
</defs>
</svg>
