<svg width="26" height="26" viewBox="0 0 26 26" fill="none" xmlns="http://www.w3.org/2000/svg">
<g clip-path="url(#clip0_85_601)">
<path d="M25.0882 4.39704L24.4068 3.08296L19.1819 8.30679C18.976 8.50474 18.7015 8.6153 18.416 8.6153C18.1304 8.6153 17.8559 8.50474 17.65 8.30679C17.5493 8.20662 17.4694 8.08742 17.4151 7.95612C17.3608 7.82482 17.3331 7.68404 17.3337 7.54196C17.3337 7.25163 17.4464 6.98079 17.6511 6.77604L22.8706 1.55654L21.5381 0.881626C20.4043 0.301886 19.1488 0.000353197 17.8754 0.00195951C13.3947 0.00195951 9.75038 3.64629 9.75038 8.12696C9.75038 9.16588 9.94321 10.1701 10.3256 11.1245L0.993796 20.4531C0.386102 21.0634 0.0449219 21.8896 0.0449219 22.7509C0.0449219 23.6121 0.386102 24.4383 0.993796 25.0486C1.62755 25.6824 2.45955 25.9987 3.29155 25.9987C4.12355 25.9987 4.95663 25.6824 5.59038 25.0486L14.9406 15.6984C15.8777 16.0656 16.8614 16.2509 17.8743 16.2509C22.355 16.2509 25.9993 12.6065 25.9993 8.12588C26.0018 6.82752 25.6891 5.54796 25.0882 4.39704ZM17.8743 14.0842C16.9383 14.0842 16.0359 13.8675 15.1909 13.4396L14.49 13.0843L4.05855 23.5168C3.85541 23.7199 3.5799 23.834 3.29263 23.834C3.00535 23.834 2.72985 23.7199 2.52671 23.5168C2.32358 23.3137 2.20946 23.0382 2.20946 22.7509C2.20946 22.4636 2.32358 22.1881 2.52671 21.985L12.9495 11.5622L12.5844 10.8591C12.1439 10.0159 11.9146 9.07833 11.916 8.12696C11.9171 7.24332 12.1146 6.37098 12.4941 5.57298C12.8736 4.77499 13.4257 4.07128 14.1104 3.51272C14.7951 2.95417 15.5954 2.55472 16.4533 2.34325C17.3113 2.13179 18.2055 2.11358 19.0714 2.28996L16.1182 5.24421C15.504 5.85738 15.166 6.67421 15.166 7.54196C15.166 8.40971 15.504 9.22763 16.1171 9.83971C17.3456 11.0671 19.4863 11.0671 20.7137 9.83971L23.6961 6.85729C23.8846 7.72702 23.876 8.62788 23.6711 9.49388C23.4662 10.3599 23.0702 11.169 22.5119 11.8621C21.9537 12.5552 21.2475 13.1145 20.445 13.4992C19.6426 13.8839 18.7642 14.0841 17.8743 14.0853V14.0842Z" fill="#212121"/>
</g>
<defs>
<clipPath id="clip0_85_601">
<rect width="26" height="26" fill="white"/>
</clipPath>
</defs>
</svg>
