<svg width="26" height="26" viewBox="0 0 26 26" fill="none" xmlns="http://www.w3.org/2000/svg">
<path d="M7.04167 17.3333H1.08333C0.796016 17.3333 0.520465 17.2192 0.317301 17.016C0.114137 16.8129 0 16.5373 0 16.25C0 15.9627 0.114137 15.6871 0.317301 15.484C0.520465 15.2808 0.796016 15.1667 1.08333 15.1667H6.46208L8.307 12.3988C8.41125 12.2399 8.55592 12.1118 8.72614 12.0274C8.89637 11.9431 9.08599 11.9056 9.2755 11.9188C9.66117 11.9427 10.0046 12.1702 10.1779 12.5158L12.5927 17.3463L13.7237 15.6498C13.9252 15.3487 14.2632 15.1678 14.625 15.1678H19.5C19.7873 15.1678 20.0629 15.2819 20.266 15.4851C20.4692 15.6882 20.5833 15.9638 20.5833 16.2511C20.5833 16.5384 20.4692 16.814 20.266 17.0171C20.0629 17.2203 19.7873 17.3344 19.5 17.3344H15.2046L13.3597 20.1023C13.2607 20.2507 13.1267 20.3723 12.9694 20.4564C12.8122 20.5405 12.6366 20.5844 12.4583 20.5844C12.4356 20.5844 12.4128 20.5844 12.3912 20.5823C12.2017 20.5705 12.0186 20.5091 11.8602 20.4044C11.7018 20.2996 11.5737 20.1551 11.4887 19.9853L9.074 15.1548L7.943 16.8513C7.84397 16.9995 7.70991 17.1211 7.5527 17.2052C7.39548 17.2892 7.21996 17.3333 7.04167 17.3333ZM23.8333 11.3588V20.5833C23.8333 23.5701 21.4034 26 18.4167 26H7.58333C4.59658 26 2.16667 23.5701 2.16667 20.5833C2.16667 20.296 2.2808 20.0205 2.48397 19.8173C2.68713 19.6141 2.96268 19.5 3.25 19.5C3.53732 19.5 3.81287 19.6141 4.01603 19.8173C4.2192 20.0205 4.33333 20.296 4.33333 20.5833C4.33333 22.3752 5.7915 23.8333 7.58333 23.8333H18.4167C20.2085 23.8333 21.6667 22.3752 21.6667 20.5833V11.3588C21.6667 11.1822 21.658 11.0067 21.6418 10.8333H16.25C14.4582 10.8333 13 9.37517 13 7.58333V2.19158C12.8253 2.1751 12.65 2.16678 12.4746 2.16667H7.58333C5.7915 2.16667 4.33333 3.62483 4.33333 5.41667V11.9167C4.33333 12.204 4.2192 12.4795 4.01603 12.6827C3.81287 12.8859 3.53732 13 3.25 13C2.96268 13 2.68713 12.8859 2.48397 12.6827C2.2808 12.4795 2.16667 12.204 2.16667 11.9167V5.41667C2.16667 2.42992 4.59658 0 7.58333 0H12.4746C14.5004 0 16.4038 0.788667 17.8371 2.22083L21.6125 5.99625C22.3189 6.69884 22.8789 7.53456 23.2601 8.45504C23.6413 9.37551 23.8361 10.3625 23.8333 11.3588ZM20.9528 8.66667C20.7137 8.25058 20.4204 7.86807 20.0807 7.52917L16.3053 3.75375C15.9661 3.41425 15.5837 3.12102 15.1678 2.88167V7.58442C15.1678 8.18133 15.6542 8.66775 16.2511 8.66775H20.9538L20.9528 8.66667Z" fill="#212121"/>
</svg>
