<svg width="26" height="26" viewBox="0 0 26 26" fill="none" xmlns="http://www.w3.org/2000/svg">
<g clip-path="url(#clip0_85_631)">
<path d="M21.6119 6.00259L17.8418 2.23259C17.139 1.5265 16.3033 0.96669 15.3829 0.585503C14.4624 0.204316 13.4756 0.00931018 12.4794 0.0117549H7.58268C4.59268 0.000921548 2.16602 2.42759 2.16602 5.41759V20.5843C2.16602 23.5743 4.59268 26.0009 7.58268 26.0009H18.416C21.406 26.0009 23.8327 23.5743 23.8327 20.5843V11.3651C23.8327 9.33925 23.0419 7.43259 21.6119 6.00259ZM20.0844 7.53009C20.431 7.87675 20.7235 8.25592 20.9618 8.66759H16.2602C15.6643 8.66759 15.1768 8.18009 15.1768 7.58425V2.88259C15.5885 3.12092 15.9677 3.41342 16.3144 3.76009L20.0844 7.53009ZM21.666 20.5843C21.666 22.3718 20.2035 23.8343 18.416 23.8343H7.58268C5.79518 23.8343 4.33268 22.3718 4.33268 20.5843V5.41759C4.33268 3.63009 5.79518 2.16759 7.58268 2.16759H12.4685C12.6418 2.16759 12.826 2.16759 12.9993 2.18925V7.58425C12.9993 9.37175 14.4618 10.8343 16.2493 10.8343H21.6444C21.666 11.0076 21.666 11.1809 21.666 11.3651V20.5843ZM10.8327 20.5843C10.8327 21.1801 10.3452 21.6676 9.74935 21.6676H7.58268C6.98685 21.6676 6.49935 21.1801 6.49935 20.5843V19.5009C6.49935 18.9051 6.98685 18.4176 7.58268 18.4176C8.17852 18.4176 8.66602 18.9051 8.66602 19.5009H9.74935C10.3452 19.5009 10.8327 19.9884 10.8327 20.5843ZM19.4993 19.5009V20.5843C19.4993 21.1801 19.0119 21.6676 18.416 21.6676H16.2493C15.6535 21.6676 15.166 21.1801 15.166 20.5843C15.166 19.9884 15.6535 19.5009 16.2493 19.5009H17.3327C17.3327 18.9051 17.8202 18.4176 18.416 18.4176C19.0119 18.4176 19.4993 18.9051 19.4993 19.5009ZM19.4993 14.0843V15.1676C19.4993 15.7634 19.0119 16.2509 18.416 16.2509C17.8202 16.2509 17.3327 15.7634 17.3327 15.1676H16.2493C15.6535 15.1676 15.166 14.6801 15.166 14.0843C15.166 13.4884 15.6535 13.0009 16.2493 13.0009H18.416C19.0119 13.0009 19.4993 13.4884 19.4993 14.0843ZM10.8327 14.0843C10.8327 14.6801 10.3452 15.1676 9.74935 15.1676H8.66602C8.66602 15.7634 8.17852 16.2509 7.58268 16.2509C6.98685 16.2509 6.49935 15.7634 6.49935 15.1676V14.0843C6.49935 13.4884 6.98685 13.0009 7.58268 13.0009H9.74935C10.3452 13.0009 10.8327 13.4884 10.8327 14.0843ZM10.8327 9.75092C10.8327 10.3468 10.3452 10.8343 9.74935 10.8343H7.58268C6.98685 10.8343 6.49935 10.3468 6.49935 9.75092C6.49935 9.15509 6.98685 8.66759 7.58268 8.66759H9.74935C10.3452 8.66759 10.8327 9.15509 10.8327 9.75092Z" fill="#212121"/>
</g>
<defs>
<clipPath id="clip0_85_631">
<rect width="26" height="26" fill="white"/>
</clipPath>
</defs>
</svg>
