<svg width="26" height="26" viewBox="0 0 26 26" fill="none" xmlns="http://www.w3.org/2000/svg">
<g clip-path="url(#clip0_85_457)">
<path d="M18.4167 10.8756C14.2361 10.8756 10.8333 14.2773 10.8333 18.4589C10.8333 22.6168 14.2361 26 18.4167 26C22.5972 26 26 22.5983 26 18.4167C26 14.2588 22.5972 10.8756 18.4167 10.8756ZM18.4167 23.8333C15.4299 23.8333 13 21.4218 13 18.4589C13 15.4722 15.4299 13.0422 18.4167 13.0422C21.4034 13.0422 23.8333 15.4538 23.8333 18.4167C23.8333 21.4034 21.4034 23.8333 18.4167 23.8333ZM20.2659 18.7341C20.4691 18.9372 20.5832 19.2127 20.5832 19.5C20.5832 19.7873 20.4691 20.0628 20.2659 20.2659C20.0628 20.4691 19.7873 20.5832 19.5 20.5832C19.2127 20.5832 18.9372 20.4691 18.7341 20.2659L17.6507 19.1826C17.4476 18.9795 17.3334 18.704 17.3333 18.4167V16.25C17.3333 15.9627 17.4475 15.6871 17.6506 15.484C17.8538 15.2808 18.1293 15.1667 18.4167 15.1667C18.704 15.1667 18.9795 15.2808 19.1827 15.484C19.3859 15.6871 19.5 15.9627 19.5 16.25V17.9682L20.2659 18.7341ZM26 7.58333V9.75C26 10.0373 25.8859 10.3129 25.6827 10.516C25.4795 10.7192 25.204 10.8333 24.9167 10.8333C24.6293 10.8333 24.3538 10.7192 24.1506 10.516C23.9475 10.3129 23.8333 10.0373 23.8333 9.75V7.58333C23.8333 5.7915 22.3752 4.33333 20.5833 4.33333H5.41667C3.62483 4.33333 2.16667 5.7915 2.16667 7.58333V8.66667H11.9167C12.204 8.66667 12.4795 8.7808 12.6827 8.98397C12.8859 9.18713 13 9.46268 13 9.75C13 10.0373 12.8859 10.3129 12.6827 10.516C12.4795 10.7192 12.204 10.8333 11.9167 10.8333H2.16667V20.5833C2.16667 22.3752 3.62483 23.8333 5.41667 23.8333H9.75C10.0373 23.8333 10.3129 23.9475 10.516 24.1506C10.7192 24.3538 10.8333 24.6293 10.8333 24.9167C10.8333 25.204 10.7192 25.4795 10.516 25.6827C10.3129 25.8859 10.0373 26 9.75 26H5.41667C2.42992 26 0 23.5701 0 20.5833V7.58333C0 4.59658 2.42992 2.16667 5.41667 2.16667H6.5V1.08333C6.5 0.796016 6.61414 0.520465 6.8173 0.317301C7.02047 0.114137 7.29602 0 7.58333 0C7.87065 0 8.1462 0.114137 8.34937 0.317301C8.55253 0.520465 8.66667 0.796016 8.66667 1.08333V2.16667H17.3333V1.08333C17.3333 0.796016 17.4475 0.520465 17.6506 0.317301C17.8538 0.114137 18.1293 0 18.4167 0C18.704 0 18.9795 0.114137 19.1827 0.317301C19.3859 0.520465 19.5 0.796016 19.5 1.08333V2.16667H20.5833C23.5701 2.16667 26 4.59658 26 7.58333Z" fill="#E4EBFF"/>
</g>
<defs>
<clipPath id="clip0_85_457">
<rect width="26" height="26" fill="white"/>
</clipPath>
</defs>
</svg>
