<svg width="16" height="19" viewBox="0 0 16 19" fill="none" xmlns="http://www.w3.org/2000/svg">
<g id="Frame" clip-path="url(#clip0_1_18)">
<g id="Group">
<path id="Vector" d="M7.88822 9.15238C9.15879 9.15238 10.2589 8.70139 11.158 7.81162C12.0569 6.92204 12.5127 5.83355 12.5127 4.57606C12.5127 3.31894 12.057 2.23034 11.1579 1.34043C10.2587 0.450952 9.15864 0 7.88822 0C6.61746 0 5.51747 0.450952 4.61852 1.34057C3.71957 2.23019 3.26369 3.31883 3.26369 4.57606C3.26369 5.83355 3.71954 6.92218 4.61856 7.8118C5.51781 8.70128 6.61791 9.15238 7.88818 9.15238H7.88822ZM5.41423 2.12785C6.10401 1.44522 6.91322 1.11343 7.88822 1.11343C8.86306 1.11343 9.67239 1.44522 10.3623 2.12785C11.0521 2.81058 11.3876 3.61148 11.3876 4.57602C11.3876 5.54086 11.0521 6.34165 10.3623 7.02438C9.67239 7.70716 8.86306 8.03895 7.88822 8.03895C6.91348 8.03895 6.10434 7.70701 5.41423 7.02438C4.72427 6.34179 4.38884 5.5409 4.38884 4.57606C4.38884 3.61148 4.72427 2.81058 5.41423 2.12785ZM15.9798 14.61C15.9539 14.2398 15.9015 13.8359 15.8243 13.4095C15.7463 12.9798 15.646 12.5737 15.5259 12.2024C15.4017 11.8187 15.2331 11.4398 15.0243 11.0767C14.8079 10.6998 14.5537 10.3716 14.2683 10.1016C13.9699 9.81905 13.6046 9.5919 13.1821 9.42617C12.7611 9.2614 12.2946 9.17791 11.7955 9.17791C11.5995 9.17791 11.41 9.25747 11.0439 9.49334C10.7837 9.66102 10.5227 9.82752 10.261 9.99283C10.0094 10.1514 9.66871 10.3 9.24785 10.4345C8.83727 10.566 8.42038 10.6327 8.00874 10.6327C7.59744 10.6327 7.18052 10.566 6.76963 10.4345C6.34926 10.3001 6.00838 10.1516 5.75728 9.99298C5.46591 9.80873 5.20228 9.64059 4.97361 9.49315C4.60783 9.25732 4.41827 9.17772 4.2223 9.17772C3.72306 9.17772 3.25668 9.26137 2.83581 9.42636C2.41364 9.59175 2.04816 9.8189 1.74948 10.1017C1.46414 10.3719 1.20985 10.6999 0.993629 11.0767C0.785204 11.4398 0.616454 11.8186 0.492217 12.2026C0.372217 12.5738 0.271905 12.9798 0.19398 13.4095C0.116618 13.8354 0.0643429 14.2394 0.0383929 14.6105C0.012893 14.9733 3.05176e-05 15.3509 3.05176e-05 15.7325C3.05176e-05 16.7243 0.31863 17.5272 0.946904 18.1193C1.56742 18.7037 2.38833 19 3.38687 19H12.6318C13.6301 19 14.451 18.7037 15.0716 18.1194C15.7001 17.5276 16.0187 16.7244 16.0187 15.7323C16.0185 15.3495 16.0055 14.9719 15.9798 14.61ZM14.2959 17.3126C13.8858 17.6988 13.3415 17.8865 12.6316 17.8865H3.38691C2.67693 17.8865 2.13258 17.6988 1.7227 17.3128C1.32063 16.934 1.12522 16.417 1.12522 15.7325C1.12522 15.3764 1.13707 15.0249 1.16084 14.6875C1.18394 14.3564 1.23127 13.9927 1.30147 13.6062C1.37073 13.2245 1.45889 12.8664 1.56378 12.5421C1.66443 12.2311 1.80168 11.9233 1.97189 11.6267C2.13434 11.344 2.32124 11.1015 2.52749 10.9061C2.72043 10.7233 2.96361 10.5737 3.25011 10.4615C3.51509 10.3577 3.81291 10.3009 4.1362 10.2923C4.17557 10.3131 4.24577 10.3526 4.35944 10.426C4.59073 10.5751 4.85732 10.7453 5.15207 10.9316C5.48432 11.1412 5.91231 11.3305 6.42369 11.4939C6.94648 11.6612 7.47969 11.7461 8.00893 11.7461C8.5382 11.7461 9.07153 11.6612 9.59405 11.494C10.1059 11.3304 10.5337 11.1412 10.8664 10.9313C11.168 10.7405 11.4272 10.5753 11.6584 10.426C11.7721 10.3528 11.8423 10.313 11.8817 10.2923C12.2051 10.3009 12.5029 10.3577 12.768 10.4615C13.0544 10.5737 13.2976 10.7234 13.4905 10.9061C13.6968 11.1013 13.8837 11.3439 14.0461 11.6268C14.2165 11.9233 14.3539 12.2313 14.4544 12.5419C14.5594 12.8666 14.6477 13.2247 14.7169 13.6061C14.7869 13.9932 14.8344 14.3571 14.8575 14.6876V14.6879C14.8814 15.024 14.8934 15.3754 14.8935 15.7325C14.8934 16.4171 14.698 16.934 14.2959 17.3126H14.2959Z" fill="#00165A"/>
</g>
</g>
<defs>
<clipPath id="clip0_1_18">
<rect width="16" height="19" fill="white"/>
</clipPath>
</defs>
</svg>
