<svg width="26" height="26" viewBox="0 0 26 26" fill="none" xmlns="http://www.w3.org/2000/svg">
<g clip-path="url(#clip0_85_595)">
<path d="M26 10.8334C26 10.7543 25.9913 10.6755 25.974 10.5983L24.5657 4.24134C24.304 3.03477 23.6355 1.95484 22.6721 1.18264C21.7088 0.410437 20.5093 -0.00708108 19.2747 9.08796e-05H6.72534C5.49148 -0.00608445 4.29296 0.411889 3.33052 1.18401C2.36809 1.95613 1.70018 3.0355 1.43867 4.24134L0.0260015 10.5983C0.00867693 10.6755 -4.29649e-05 10.7543 1.48351e-06 10.8334V11.9168C-0.000872558 12.9715 0.3845 13.99 1.08333 14.78V20.5834C1.08505 22.0195 1.65629 23.3962 2.67174 24.4117C3.68719 25.4271 5.06394 25.9984 6.5 26.0001H19.5C20.9361 25.9984 22.3128 25.4271 23.3283 24.4117C24.3437 23.3962 24.9149 22.0195 24.9167 20.5834V14.78C25.6155 13.99 26.0009 12.9715 26 11.9168V10.8334ZM2.16667 10.9515L3.55333 4.71151C3.71046 3.98811 4.11127 3.34063 4.68868 2.8774C5.26609 2.41417 5.98508 2.16329 6.72534 2.16676H7.58334V5.41676C7.58334 5.70408 7.69747 5.97963 7.90064 6.18279C8.1038 6.38595 8.37935 6.50009 8.66667 6.50009C8.95399 6.50009 9.22954 6.38595 9.4327 6.18279C9.63586 5.97963 9.75 5.70408 9.75 5.41676V2.16676H16.25V5.41676C16.25 5.70408 16.3641 5.97963 16.5673 6.18279C16.7705 6.38595 17.046 6.50009 17.3333 6.50009C17.6207 6.50009 17.8962 6.38595 18.0994 6.18279C18.3025 5.97963 18.4167 5.70408 18.4167 5.41676V2.16676H19.2747C20.0149 2.16329 20.7339 2.41417 21.3113 2.8774C21.8887 3.34063 22.2895 3.98811 22.4467 4.71151L23.8333 10.9515V11.9168C23.8333 12.4914 23.6051 13.0425 23.1987 13.4488C22.7924 13.8552 22.2413 14.0834 21.6667 14.0834H20.5833C20.0087 14.0834 19.4576 13.8552 19.0513 13.4488C18.6449 13.0425 18.4167 12.4914 18.4167 11.9168C18.4167 11.6294 18.3025 11.3539 18.0994 11.1507C17.8962 10.9476 17.6207 10.8334 17.3333 10.8334C17.046 10.8334 16.7705 10.9476 16.5673 11.1507C16.3641 11.3539 16.25 11.6294 16.25 11.9168C16.25 12.4914 16.0217 13.0425 15.6154 13.4488C15.2091 13.8552 14.658 14.0834 14.0833 14.0834H11.9167C11.342 14.0834 10.7909 13.8552 10.3846 13.4488C9.97828 13.0425 9.75 12.4914 9.75 11.9168C9.75 11.6294 9.63586 11.3539 9.4327 11.1507C9.22954 10.9476 8.95399 10.8334 8.66667 10.8334C8.37935 10.8334 8.1038 10.9476 7.90064 11.1507C7.69747 11.3539 7.58334 11.6294 7.58334 11.9168C7.58334 12.4914 7.35506 13.0425 6.94873 13.4488C6.5424 13.8552 5.9913 14.0834 5.41667 14.0834H4.33333C3.7587 14.0834 3.2076 13.8552 2.80127 13.4488C2.39494 13.0425 2.16667 12.4914 2.16667 11.9168V10.9515ZM19.5 23.8334H6.5C5.63805 23.8334 4.8114 23.491 4.2019 22.8815C3.59241 22.272 3.25 21.4454 3.25 20.5834V16.1125C3.60382 16.2041 3.96785 16.2504 4.33333 16.2501H5.41667C6.0318 16.2504 6.63992 16.1194 7.20038 15.8659C7.76084 15.6124 8.26074 15.2422 8.66667 14.78C9.07259 15.2422 9.57249 15.6124 10.133 15.8659C10.6934 16.1194 11.3015 16.2504 11.9167 16.2501H14.0833C14.6985 16.2504 15.3066 16.1194 15.867 15.8659C16.4275 15.6124 16.9274 15.2422 17.3333 14.78C17.7393 15.2422 18.2392 15.6124 18.7996 15.8659C19.3601 16.1194 19.9682 16.2504 20.5833 16.2501H21.6667C22.0322 16.2504 22.3962 16.2041 22.75 16.1125V20.5834C22.75 21.4454 22.4076 22.272 21.7981 22.8815C21.1886 23.491 20.362 23.8334 19.5 23.8334Z" fill="#212121"/>
</g>
<defs>
<clipPath id="clip0_85_595">
<rect width="26" height="26" fill="white"/>
</clipPath>
</defs>
</svg>
